<svg width="28" height="28" viewBox="0 0 28 28" fill="none" xmlns="http://www.w3.org/2000/svg">
<g clip-path="url(#clip0_405_2205)">
<path d="M26.6856 13.8428C26.6856 20.9357 20.9357 26.6856 13.8428 26.6856C6.74992 26.6856 1 20.9357 1 13.8428C1 6.74992 6.74992 1 13.8428 1C20.9357 1 26.6856 6.74992 26.6856 13.8428Z" stroke="#C9A774" stroke-width="2" stroke-miterlimit="10"/>
<path d="M19.7816 20.7388C18.6458 21.7237 16.9561 22.3947 15.6018 22.9303C14.9 23.2042 14.3122 23.4381 13.8412 23.6936C13.3703 23.4381 12.7825 23.2073 12.0807 22.9303C10.7264 22.3916 9.03666 21.7237 7.90092 20.7388C6.74671 19.7354 6.40815 18.6305 6.80827 17.1562C8.51034 10.8988 7.74703 7.94404 6.77441 6.55899L7.16838 6.13424C7.75934 6.41741 8.56882 6.67595 9.55682 6.67595C9.83691 6.67595 10.1355 6.65133 10.4433 6.60516C12.1915 6.33738 13.161 5.84184 13.8412 5.23242C14.5184 5.84492 15.4941 6.33738 17.2454 6.60516C17.547 6.65133 17.8456 6.67595 18.1257 6.67595C18.9136 6.67595 19.6769 6.51282 20.391 6.19272C20.4341 6.17426 20.4741 6.15579 20.5141 6.13424L20.9081 6.55899C19.9385 7.94404 19.1721 10.8988 20.8773 17.1562C21.2774 18.6305 20.9419 19.7324 19.7816 20.7388Z" fill="#C9A774"/>
<path d="M17 12L12.875 16.125L11 14.25" stroke="white" stroke-width="1.5" stroke-linecap="round" stroke-linejoin="round"/>
</g>
<defs>
<clipPath id="clip0_405_2205">
<rect width="27.6856" height="27.6856" fill="white"/>
</clipPath>
</defs>
</svg>
