<svg width="28" height="29" viewBox="0 0 28 29" fill="none" xmlns="http://www.w3.org/2000/svg">
<g clip-path="url(#clip0_1313_423)">
<path d="M26.6856 14.3428C26.6856 21.4357 20.9357 27.1856 13.8428 27.1856C6.74992 27.1856 1 21.4357 1 14.3428C1 7.24992 6.74992 1.5 13.8428 1.5C20.9357 1.5 26.6856 7.24992 26.6856 14.3428Z" stroke="#1E75C0" stroke-opacity="0.2" stroke-width="2" stroke-miterlimit="10"/>
<path d="M19.7816 21.2388C18.6458 22.2237 16.9561 22.8947 15.6018 23.4303C14.9 23.7042 14.3122 23.9381 13.8412 24.1936C13.3703 23.9381 12.7825 23.7073 12.0807 23.4303C10.7264 22.8916 9.03666 22.2237 7.90092 21.2388C6.74671 20.2354 6.40815 19.1305 6.80827 17.6562C8.51034 11.3988 7.74703 8.44404 6.77441 7.05899L7.16838 6.63424C7.75934 6.91741 8.56882 7.17595 9.55682 7.17595C9.83691 7.17595 10.1355 7.15133 10.4433 7.10516C12.1915 6.83738 13.161 6.34184 13.8412 5.73242C14.5184 6.34492 15.4941 6.83738 17.2454 7.10516C17.547 7.15133 17.8456 7.17595 18.1257 7.17595C18.9136 7.17595 19.6769 7.01282 20.391 6.69272C20.4341 6.67426 20.4741 6.65579 20.5141 6.63424L20.9081 7.05899C19.9385 8.44404 19.1721 11.3988 20.8773 17.6562C21.2774 19.1305 20.9419 20.2324 19.7816 21.2388Z" fill="#1E75C0" fill-opacity="0.2"/>
</g>
<defs>
<clipPath id="clip0_1313_423">
<rect width="27.6856" height="27.6856" fill="white" transform="translate(0 0.5)"/>
</clipPath>
</defs>
</svg>
