<svg width="333" height="212" viewBox="0 0 333 212" fill="none" xmlns="http://www.w3.org/2000/svg">
<g clip-path="url(#clip0_510_6642)">
<path d="M223.957 136.515C211.483 91.1184 212.077 61.9747 217.601 43.2436C214.393 43.7451 211.126 44.0106 207.829 44.0106C204.532 44.0106 201.206 43.7451 197.761 43.2141H197.612C183.534 41.0313 173.762 37.3441 166.485 32.8015V184.39C170.435 182.62 174.772 180.909 179.494 179.051C218.789 163.565 228.739 154.037 223.957 136.486V136.515Z" fill="#8DBFFF" fill-opacity="0.2"/>
<path d="M252.5 32.8899L233.016 12.0351C233.016 12.0351 232.125 12.8905 230.343 14.0704C230.016 14.3064 229.6 14.5719 229.214 14.8078C228.798 15.0733 228.353 15.3388 227.878 15.6338C227.313 15.9583 226.719 16.2827 226.066 16.5777C225.62 16.7842 225.145 17.0202 224.64 17.2562C220.423 19.144 214.72 20.8254 207.859 20.8254C205.721 20.8254 203.552 20.6484 201.206 20.2944C176.465 16.4892 172.544 8.17086 166.545 0C160.545 8.17086 156.654 16.4892 131.883 20.2944C129.537 20.6484 127.339 20.8254 125.23 20.8254C109.518 20.8254 100.014 12.0646 100.014 12.0646L80.5 32.8899C80.5 32.8899 110.558 42.6832 86.4997 130.439C70.2234 189.847 158.941 198.844 166.485 212C174.029 198.844 262.777 189.818 246.471 130.439C222.413 42.6832 252.5 32.8899 252.5 32.8899ZM223.809 168.019C212.849 177.458 196.543 183.889 183.474 189.021C176.702 191.647 171.029 193.888 166.485 196.337C161.941 193.888 156.268 191.676 149.496 189.021C136.427 183.859 120.121 177.458 109.162 168.019C98.0237 158.403 94.7566 147.813 98.6178 133.684C115.043 73.7148 107.677 45.397 98.2911 32.123L102.093 28.0523C107.795 30.7661 115.607 33.2439 125.141 33.2439C127.844 33.2439 130.725 33.0079 133.695 32.5655C150.565 29.9992 159.921 25.25 166.485 19.4095C173.019 25.2795 182.435 29.9992 199.335 32.5655C202.245 33.0079 205.126 33.2439 207.829 33.2439C215.433 33.2439 222.799 31.6805 229.689 28.6128C230.105 28.4358 230.491 28.2588 230.877 28.0523L234.679 32.123C225.323 45.397 217.928 73.7148 234.382 133.684C238.243 147.813 235.006 158.373 223.809 168.019Z" fill="#8DBFFF" fill-opacity="0.2"/>
</g>
<g clip-path="url(#clip1_510_6642)">
<path d="M23.9608 72.533C23.66 74.9428 22.7735 77.3686 21.982 79.2517C21.5862 80.1933 21.1904 80.9752 20.9371 81.5498C20.668 82.1083 20.4781 82.4434 20.4781 82.4434C20.4781 82.4434 19.6707 81.837 18.8634 80.6241C18.0402 79.3953 17.2486 77.5441 17.3911 75.0226C17.5178 72.4852 18.6734 69.836 19.829 67.8412C20.1298 67.3464 20.4147 66.8996 20.6839 66.4847C20.953 66.0857 21.2221 65.7346 21.4437 65.4473C21.887 64.8728 22.1719 64.5536 22.1719 64.5536C22.1719 64.5536 22.8051 65.3356 23.3275 66.74C23.5967 67.4422 23.8183 68.288 23.9608 69.2615C24.1032 70.235 24.1191 71.3202 23.9924 72.533H23.9608Z" fill="#8DBFFF" fill-opacity="0.2"/>
<path d="M14.0034 90.2473C14.415 92.8805 14.1459 95.7371 13.8451 97.9554C13.7818 98.514 13.6868 99.0406 13.6076 99.5034C13.5285 99.9662 13.4652 100.381 13.4018 100.716C13.2752 101.403 13.1644 101.801 13.1644 101.801C13.1644 101.801 12.1354 101.403 10.9006 100.349C10.2991 99.8226 9.63419 99.1204 9.06429 98.2108C8.51022 97.3011 7.98782 96.184 7.70287 94.8115C7.11714 92.0666 7.54456 88.9227 8.19361 86.497C8.51022 85.2841 8.89015 84.2628 9.15927 83.5287C9.44422 82.7946 9.65002 82.3796 9.65002 82.3796C9.65002 82.3796 9.88747 82.5392 10.2357 82.8584C10.584 83.1776 11.0589 83.6723 11.5655 84.3266C12.0563 84.9809 12.5787 85.7948 13.0061 86.7843C13.4335 87.7737 13.8134 88.9227 14.0034 90.2314V90.2473Z" fill="#8DBFFF" fill-opacity="0.2"/>
<path d="M8.93763 109.988C10.1249 112.685 10.6948 115.765 11.1381 118.191C11.2489 118.798 11.3122 119.372 11.3914 119.883C11.4863 120.393 11.5497 120.84 11.5972 121.223C11.6921 121.973 11.7238 122.42 11.7238 122.42C11.7238 122.42 11.423 122.42 10.9164 122.309C10.4099 122.213 9.69749 122.037 8.89014 121.702C8.08278 121.367 7.16461 120.856 6.23062 120.09C5.32828 119.308 4.4576 118.271 3.68191 116.883C2.19384 114.106 1.71893 110.483 1.73476 107.674C1.73476 106.972 1.76642 106.318 1.79808 105.727C1.84557 105.137 1.89306 104.61 1.94055 104.179C2.05137 103.318 2.16218 102.807 2.16218 102.807C2.16218 102.807 3.31781 103.238 4.69506 104.355C5.3916 104.913 6.16729 105.664 6.8955 106.589C7.6237 107.515 8.3519 108.648 8.9218 109.988H8.93763Z" fill="#8DBFFF" fill-opacity="0.2"/>
<path d="M9.9666 130.559C12.1354 132.921 13.8134 135.857 15.1432 138.172C15.3015 138.475 15.4439 138.746 15.6023 139.017C15.7447 139.289 15.8872 139.544 16.0297 139.799C16.2988 140.278 16.5204 140.725 16.6946 141.092C17.0587 141.826 17.2803 142.273 17.2803 142.273C17.2803 142.273 16.9637 142.369 16.4096 142.464C15.8555 142.56 15.0482 142.64 14.0825 142.592C12.1987 142.48 9.555 141.858 7.05379 139.56C4.55257 137.262 2.71623 133.719 1.73474 130.719C1.46562 129.969 1.29149 129.266 1.11735 128.612C0.959046 127.958 0.816571 127.399 0.721588 126.905C0.547453 125.931 0.484131 125.341 0.484131 125.341C0.484131 125.341 0.816571 125.357 1.37064 125.468C1.92471 125.58 2.71623 125.787 3.61857 126.139C4.50508 126.506 5.59738 127 6.65802 127.718C7.19626 128.086 7.7345 128.485 8.27273 128.963C8.84263 129.426 9.3967 129.953 9.93493 130.543L9.9666 130.559Z" fill="#8DBFFF" fill-opacity="0.2"/>
<path d="M17.4861 149.726C17.866 149.933 18.2143 150.173 18.5942 150.396C18.9742 150.635 19.3383 150.859 19.6865 151.114C20.3989 151.609 21.0796 152.135 21.7603 152.662C22.0928 152.917 22.4252 153.189 22.726 153.46C22.8843 153.588 23.0426 153.731 23.1851 153.859C23.3434 153.987 23.5017 154.114 23.66 154.242C24.2774 154.753 24.8314 155.279 25.3697 155.758C26.462 156.7 27.3168 157.593 27.9659 158.184C28.5991 158.79 28.9632 159.173 28.9632 159.173C28.9632 159.173 28.6783 159.381 28.14 159.684C27.6018 159.971 26.8261 160.338 25.8288 160.626C24.8314 160.913 23.5967 161.136 22.2194 161.072C20.8263 161.024 19.2274 160.737 17.5652 159.971C14.1934 158.471 11.1064 155.423 9.09593 152.678C8.57353 151.992 8.16194 151.322 7.76617 150.715C7.38624 150.109 7.03797 149.566 6.80051 149.103C6.29394 148.162 6.04065 147.587 6.04065 147.587C6.04065 147.587 6.38892 147.491 6.99048 147.412C7.60787 147.332 8.47854 147.268 9.52336 147.332C10.0458 147.364 10.6157 147.428 11.2331 147.523C11.8504 147.619 12.4995 147.763 13.1802 147.938C13.8451 148.114 14.5575 148.353 15.254 148.656C15.9822 148.944 16.7262 149.295 17.4861 149.71V149.726Z" fill="#8DBFFF" fill-opacity="0.2"/>
<path d="M30.5938 165.621C32.4301 165.956 34.2348 166.53 35.9603 167.105C36.7994 167.424 37.6542 167.711 38.4616 168.014C38.8573 168.174 39.2531 168.334 39.633 168.477C40.013 168.621 40.3929 168.765 40.7412 168.908C42.1501 169.515 43.4007 169.977 44.2555 170.376C44.6829 170.584 45.0471 170.696 45.2687 170.807C45.5061 170.903 45.6328 170.967 45.6328 170.967C45.6328 170.967 45.427 171.302 45.0154 171.797C44.588 172.291 43.9547 172.978 43.0524 173.664C42.1659 174.318 41.0261 174.988 39.5697 175.483C38.8415 175.739 38.05 175.898 37.1951 176.01C36.3403 176.106 35.3746 176.153 34.3773 176.074C33.38 175.978 32.351 175.802 31.322 175.531C30.3089 175.244 29.3115 174.893 28.3142 174.478C27.3486 174.047 26.3987 173.552 25.4964 173.057C24.6099 172.547 23.7867 171.988 23.0268 171.462C22.8369 171.334 22.6469 171.19 22.4569 171.063C22.2828 170.919 22.1087 170.791 21.9345 170.648C21.6021 170.376 21.2697 170.121 20.9689 169.866C20.3673 169.355 19.8291 168.908 19.4175 168.493C18.5785 167.695 18.1194 167.185 18.1194 167.185C18.1194 167.185 18.436 166.977 19.0534 166.69C19.6549 166.403 20.5415 166.067 21.6338 165.78C22.1878 165.637 22.7894 165.509 23.4384 165.413C24.1033 165.301 24.8157 165.238 25.5597 165.206C26.3196 165.174 27.1111 165.19 27.9343 165.254C28.7733 165.301 29.6598 165.413 30.5622 165.589L30.5938 165.621Z" fill="#8DBFFF" fill-opacity="0.2"/>
<path d="M48.4031 176.265C49.4004 176.074 50.3977 175.946 51.3951 175.866C52.3924 175.738 53.3897 175.675 54.3712 175.643C55.3527 175.563 56.3025 175.531 57.2207 175.515C58.1389 175.451 59.0254 175.435 59.8327 175.435C61.4791 175.355 62.888 175.371 63.8853 175.324C64.8826 175.308 65.4842 175.324 65.4842 175.324C65.4842 175.324 65.4367 175.738 65.2467 176.409C65.0568 177.079 64.7243 178.005 64.1386 179.074C63.8537 179.601 63.4896 180.159 63.0621 180.718C62.8405 181.005 62.603 181.292 62.3498 181.563C62.0965 181.835 61.8115 182.106 61.5107 182.377C60.8934 182.92 60.181 183.431 59.3578 183.925C58.5346 184.404 57.6006 184.787 56.54 185.154C55.4793 185.521 54.3712 185.713 53.1997 185.872C52.0283 186.048 50.8568 186.048 49.6695 186.016C48.4822 186.016 47.3266 185.856 46.2027 185.681C45.0629 185.537 44.0022 185.266 43.0049 184.995C42.4983 184.867 42.0234 184.739 41.5485 184.596C41.0894 184.436 40.662 184.292 40.2504 184.133C39.4272 183.83 38.699 183.574 38.1133 183.303C36.9418 182.76 36.2611 182.409 36.2611 182.409C36.2611 182.409 36.5144 182.074 37.0368 181.579C37.5434 181.085 38.3349 180.414 39.3481 179.744C40.3612 179.09 41.6593 178.356 43.1632 177.749C44.6671 177.159 46.4243 176.584 48.3873 176.265H48.4031Z" fill="#8DBFFF" fill-opacity="0.2"/>
<path d="M27.776 75.4535C25.623 76.2514 23.7392 78.0069 22.4411 79.5549C21.8079 80.3369 21.2855 81.0391 20.9689 81.5817C20.6364 82.1083 20.4623 82.4434 20.4623 82.4434C20.4623 82.4434 21.4121 82.8105 22.8369 82.9062C24.2774 83.002 26.1929 82.8743 28.2034 81.9806C30.198 81.071 31.9552 79.6507 33.2375 78.4697C33.5541 78.1665 33.8549 77.8952 34.1082 77.6398C34.3615 77.3845 34.5989 77.1611 34.7889 76.9696C35.153 76.5866 35.3588 76.3472 35.3588 76.3472C35.3588 76.3472 34.5356 75.7567 33.19 75.3418C32.5093 75.1343 31.6861 74.9588 30.7679 74.9428C29.8656 74.9428 28.8366 75.0705 27.776 75.4694V75.4535Z" fill="#8DBFFF" fill-opacity="0.2"/>
<path d="M18.9426 92.2102C16.9004 93.7103 15.3807 96.1201 14.4625 98.1469C14.2251 98.6576 14.0351 99.1363 13.861 99.5672C13.7027 100.014 13.576 100.397 13.4652 100.732C13.2594 101.387 13.1644 101.801 13.1644 101.801C13.1644 101.801 14.2726 101.897 15.8398 101.594C16.6313 101.434 17.5178 101.179 18.436 100.764C19.3858 100.365 20.3198 99.7906 21.2696 99.0406C23.1376 97.4926 24.594 95.4498 25.623 93.7742C26.1296 92.9443 26.557 92.1942 26.842 91.6676C27.1111 91.125 27.2694 90.8058 27.2694 90.8058C27.2694 90.8058 27.0003 90.7101 26.5412 90.6143C26.0821 90.5186 25.4172 90.4069 24.6415 90.4069C23.8658 90.4069 22.9477 90.4707 21.9662 90.742C20.9847 91.0133 19.9557 91.4761 18.9267 92.2102H18.9426Z" fill="#8DBFFF" fill-opacity="0.2"/>
<path d="M14.6999 110.611C12.9744 112.765 12.1037 115.749 11.8346 118.175C11.7713 118.782 11.6921 119.356 11.6763 119.867C11.6763 120.377 11.6763 120.84 11.6763 121.207C11.6763 121.973 11.7238 122.42 11.7238 122.42C11.7238 122.42 12.0245 122.356 12.4995 122.165C12.9902 121.989 13.6709 121.686 14.4149 121.255C15.1748 120.824 16.0138 120.25 16.837 119.532C17.676 118.814 18.515 117.936 19.2274 116.882C20.6996 114.776 21.5862 112.334 22.2194 110.339C22.3619 109.845 22.5043 109.382 22.6151 108.967C22.726 108.552 22.8209 108.169 22.8843 107.866C23.0426 107.243 23.1217 106.86 23.1217 106.86C23.1217 106.86 21.9028 106.765 20.2406 107.148C19.4016 107.339 18.4676 107.674 17.5019 108.233C16.5204 108.775 15.5864 109.541 14.6999 110.627V110.611Z" fill="#8DBFFF" fill-opacity="0.2"/>
<path d="M16.1088 129.155C15.0957 131.948 15.2381 135.347 15.8397 137.916C15.903 138.235 15.9663 138.555 16.0455 138.842C16.1405 139.145 16.2196 139.416 16.2988 139.688C16.4571 140.214 16.6154 140.677 16.7579 141.076C16.8845 141.475 17.027 141.762 17.122 141.97C17.2169 142.177 17.2644 142.289 17.2644 142.289C17.2644 142.289 17.5494 142.113 17.9768 141.746C18.4042 141.379 18.9741 140.837 19.5915 140.118C20.858 138.666 22.2035 136.576 22.9634 133.879C23.7233 131.198 23.7549 128.405 23.7233 126.234C23.6916 125.692 23.7233 125.181 23.6758 124.734C23.66 124.287 23.6125 123.888 23.5808 123.553C23.5491 122.899 23.5016 122.5 23.5016 122.5C23.5016 122.5 23.185 122.58 22.6626 122.771C22.1402 122.963 21.412 123.266 20.6047 123.745C19.7815 124.224 18.9583 124.862 18.1351 125.756C17.7394 126.186 17.3436 126.697 16.9795 127.256C16.647 127.83 16.3463 128.453 16.093 129.155H16.1088Z" fill="#8DBFFF" fill-opacity="0.2"/>
<path d="M23.3117 146.183C23.3117 146.582 23.2959 146.997 23.3117 147.396C23.3434 147.795 23.3909 148.21 23.47 148.609C23.5967 149.422 23.7866 150.236 24.0399 151.002C24.1666 151.385 24.3091 151.768 24.4515 152.151C24.5307 152.343 24.594 152.534 24.6732 152.71C24.7523 152.886 24.8315 153.061 24.9264 153.237C25.2589 153.939 25.623 154.609 25.9713 155.231C26.7311 156.428 27.4277 157.45 28.0134 158.12C28.5833 158.79 28.9474 159.173 28.9474 159.173C28.9474 159.173 29.169 158.886 29.4856 158.359C29.8022 157.833 30.198 157.067 30.5779 156.125C30.9579 155.184 31.3061 154.066 31.5752 152.774C31.8285 151.497 31.9552 150.125 31.9077 148.625C31.781 145.64 30.9104 142.8 30.1663 140.597C29.9605 140.055 29.8022 139.544 29.6281 139.097C29.454 138.65 29.2798 138.267 29.1532 137.932C28.8999 137.278 28.7099 136.895 28.7099 136.895C28.7099 136.895 28.4091 137.086 27.9342 137.453C27.4593 137.82 26.8261 138.379 26.1612 139.145C25.8288 139.512 25.4805 139.959 25.1639 140.438C24.8473 140.916 24.5465 141.443 24.2774 142.034C24.0083 142.624 23.7866 143.262 23.5967 143.965C23.4384 144.651 23.3276 145.401 23.2959 146.199L23.3117 146.183Z" fill="#8DBFFF" fill-opacity="0.2"/>
<path d="M35.343 160.019C35.8337 161.647 36.6727 163.243 37.7334 164.615C38.2399 165.333 38.8257 165.956 39.4114 166.562C39.6963 166.865 39.9971 167.153 40.2979 167.424C40.5987 167.679 40.8995 167.935 41.2002 168.174C42.3717 169.164 43.5115 169.818 44.3188 170.313C44.7146 170.568 45.0787 170.712 45.3003 170.823C45.5378 170.935 45.6644 170.983 45.6644 170.983C45.6644 170.983 45.7752 170.616 45.8861 169.977C45.9969 169.339 46.1077 168.413 46.1235 167.328C46.1552 166.211 46.1077 164.934 45.9019 163.594C45.7911 162.94 45.6644 162.221 45.4903 161.503C45.3162 160.785 45.0787 160.083 44.7938 159.349C43.654 156.46 41.9284 153.955 40.5037 152.024C40.4087 151.912 40.3137 151.784 40.2346 151.673C40.1554 151.561 40.0604 151.449 39.9813 151.338C39.8072 151.114 39.6488 150.907 39.4905 150.715C39.1739 150.332 38.889 149.997 38.6674 149.71C38.2083 149.135 37.9075 148.832 37.9075 148.832C37.9075 148.832 37.6542 149.119 37.2901 149.646C36.926 150.173 36.4511 150.955 36.0078 151.944C35.7862 152.439 35.5804 152.981 35.4063 153.588C35.2321 154.178 35.1055 154.817 35.0105 155.487C34.9314 156.173 34.8839 156.907 34.9472 157.673C35.0105 158.423 35.1372 159.221 35.3746 160.051L35.343 160.019Z" fill="#8DBFFF" fill-opacity="0.2"/>
<path d="M31.8285 62.9897C29.3432 65.176 27.9342 67.9209 27.206 69.9796C27.0319 70.5063 26.8736 70.985 26.7628 71.4159C26.652 71.8468 26.5728 72.2298 26.5095 72.549C26.3987 73.1714 26.3512 73.5384 26.3512 73.5384C26.3512 73.5384 26.6995 73.4108 27.2694 73.1395C27.5543 72.9958 27.9026 72.8362 28.2825 72.6288C28.6783 72.4373 29.1057 72.2139 29.5806 71.9585C31.4486 70.9372 33.7915 69.5168 35.9603 67.6018C38.1133 65.6867 39.7913 63.5802 41.0894 61.9204C41.406 61.5055 41.6909 61.1065 41.9601 60.7554C42.2134 60.4203 42.4508 60.1171 42.6249 59.8458C42.989 59.3351 43.1948 59 43.1948 59C43.1948 59 42.8307 58.9681 42.1817 58.984C41.8651 58.984 41.4535 59 41.0102 59.0319C40.567 59.0798 40.0604 59.1596 39.4905 59.2553C38.9206 59.3511 38.3349 59.5107 37.7175 59.7022C37.4009 59.7979 37.0843 59.9096 36.7518 60.0213C36.4352 60.149 36.1028 60.2926 35.7703 60.4363C35.4379 60.5799 35.1055 60.7554 34.7572 60.915C34.4247 61.1065 34.1081 61.298 33.7599 61.5055C33.4274 61.713 33.095 61.9364 32.7784 62.1758C32.4618 62.4152 32.1452 62.6865 31.8285 62.9578V62.9897Z" fill="#8DBFFF" fill-opacity="0.2"/>
<path d="M50.9993 168.828C51.5375 169.531 52.1708 170.201 52.8673 170.823C53.5638 171.398 54.3237 171.94 55.0994 172.435C55.8909 172.882 56.7141 173.297 57.5215 173.648C58.3446 173.967 59.152 174.238 59.9277 174.478C61.4791 174.861 62.8722 175.132 63.8853 175.18C64.8826 175.26 65.4842 175.276 65.4842 175.276C65.4842 175.276 65.4209 174.861 65.2467 174.175C65.0726 173.488 64.7718 172.547 64.3286 171.462C64.1069 170.919 63.8537 170.344 63.5529 169.754C63.4104 169.467 63.2521 169.163 63.078 168.876C62.9038 168.557 62.7297 168.254 62.5397 167.935C62.1598 167.312 61.7482 166.69 61.2891 166.083C60.83 165.477 60.3393 164.839 59.7852 164.248C57.6006 161.886 55.1311 160.163 53.1522 158.838C52.899 158.679 52.6615 158.535 52.424 158.391C52.2024 158.232 51.9808 158.088 51.775 157.96C51.3634 157.689 50.9835 157.498 50.6669 157.29C50.0495 156.907 49.6537 156.716 49.6537 156.716C49.6537 156.716 49.4954 157.099 49.3054 157.753C49.1155 158.407 48.8938 159.349 48.783 160.514C48.6722 161.679 48.688 162.971 48.9888 164.408C49.2896 165.86 49.907 167.312 50.9676 168.796L50.9993 168.828Z" fill="#8DBFFF" fill-opacity="0.2"/>
</g>
<g clip-path="url(#clip2_510_6642)">
<path d="M309.039 72.533C309.34 74.9428 310.227 77.3686 311.018 79.2517C311.414 80.1933 311.81 80.9752 312.063 81.5498C312.332 82.1083 312.522 82.4434 312.522 82.4434C312.522 82.4434 313.329 81.837 314.137 80.6241C314.96 79.3953 315.751 77.5441 315.609 75.0226C315.482 72.4852 314.327 69.836 313.171 67.8412C312.87 67.3464 312.585 66.8996 312.316 66.4847C312.047 66.0857 311.778 65.7346 311.556 65.4473C311.113 64.8728 310.828 64.5536 310.828 64.5536C310.828 64.5536 310.195 65.3356 309.672 66.74C309.403 67.4422 309.182 68.288 309.039 69.2615C308.897 70.235 308.881 71.3202 309.008 72.533H309.039Z" fill="#8DBFFF" fill-opacity="0.2"/>
<path d="M318.997 90.2473C318.585 92.8805 318.854 95.7371 319.155 97.9554C319.218 98.514 319.313 99.0406 319.392 99.5034C319.472 99.9662 319.535 100.381 319.598 100.716C319.725 101.403 319.836 101.801 319.836 101.801C319.836 101.801 320.865 101.403 322.099 100.349C322.701 99.8226 323.366 99.1204 323.936 98.2108C324.49 97.3011 325.012 96.184 325.297 94.8115C325.883 92.0666 325.455 88.9227 324.806 86.497C324.49 85.2841 324.11 84.2628 323.841 83.5287C323.556 82.7946 323.35 82.3796 323.35 82.3796C323.35 82.3796 323.113 82.5392 322.764 82.8584C322.416 83.1776 321.941 83.6723 321.434 84.3266C320.944 84.9809 320.421 85.7948 319.994 86.7843C319.566 87.7737 319.187 88.9227 318.997 90.2314V90.2473Z" fill="#8DBFFF" fill-opacity="0.2"/>
<path d="M324.062 109.988C322.875 112.685 322.305 115.765 321.862 118.191C321.751 118.798 321.688 119.372 321.609 119.883C321.514 120.393 321.45 120.84 321.403 121.223C321.308 121.973 321.276 122.42 321.276 122.42C321.276 122.42 321.577 122.42 322.084 122.309C322.59 122.213 323.303 122.037 324.11 121.702C324.917 121.367 325.835 120.856 326.769 120.09C327.672 119.308 328.542 118.271 329.318 116.883C330.806 114.106 331.281 110.483 331.265 107.674C331.265 106.972 331.234 106.318 331.202 105.727C331.154 105.137 331.107 104.61 331.059 104.179C330.949 103.318 330.838 102.807 330.838 102.807C330.838 102.807 329.682 103.238 328.305 104.355C327.608 104.913 326.833 105.664 326.105 106.589C325.376 107.515 324.648 108.648 324.078 109.988H324.062Z" fill="#8DBFFF" fill-opacity="0.2"/>
<path d="M323.033 130.559C320.865 132.921 319.187 135.857 317.857 138.172C317.699 138.475 317.556 138.746 317.398 139.017C317.255 139.289 317.113 139.544 316.97 139.799C316.701 140.278 316.48 140.725 316.305 141.092C315.941 141.826 315.72 142.273 315.72 142.273C315.72 142.273 316.036 142.369 316.59 142.464C317.144 142.56 317.952 142.64 318.917 142.592C320.801 142.48 323.445 141.858 325.946 139.56C328.447 137.262 330.284 133.719 331.265 130.719C331.534 129.969 331.709 129.266 331.883 128.612C332.041 127.958 332.183 127.399 332.278 126.905C332.453 125.931 332.516 125.341 332.516 125.341C332.516 125.341 332.183 125.357 331.629 125.468C331.075 125.58 330.284 125.787 329.381 126.139C328.495 126.506 327.403 127 326.342 127.718C325.804 128.086 325.266 128.485 324.727 128.963C324.157 129.426 323.603 129.953 323.065 130.543L323.033 130.559Z" fill="#8DBFFF" fill-opacity="0.2"/>
<path d="M315.514 149.726C315.134 149.933 314.786 150.173 314.406 150.396C314.026 150.635 313.662 150.859 313.313 151.114C312.601 151.609 311.92 152.135 311.24 152.662C310.907 152.917 310.575 153.189 310.274 153.46C310.116 153.588 309.957 153.731 309.815 153.859C309.657 153.987 309.498 154.114 309.34 154.242C308.723 154.753 308.169 155.279 307.63 155.758C306.538 156.7 305.683 157.593 305.034 158.184C304.401 158.79 304.037 159.173 304.037 159.173C304.037 159.173 304.322 159.381 304.86 159.684C305.398 159.971 306.174 160.338 307.171 160.626C308.169 160.913 309.403 161.136 310.781 161.072C312.174 161.024 313.773 160.737 315.435 159.971C318.807 158.471 321.894 155.423 323.904 152.678C324.426 151.992 324.838 151.322 325.234 150.715C325.614 150.109 325.962 149.566 326.199 149.103C326.706 148.162 326.959 147.587 326.959 147.587C326.959 147.587 326.611 147.491 326.01 147.412C325.392 147.332 324.521 147.268 323.477 147.332C322.954 147.364 322.384 147.428 321.767 147.523C321.15 147.619 320.501 147.763 319.82 147.938C319.155 148.114 318.443 148.353 317.746 148.656C317.018 148.944 316.274 149.295 315.514 149.71V149.726Z" fill="#8DBFFF" fill-opacity="0.2"/>
<path d="M302.406 165.621C300.57 165.956 298.765 166.53 297.04 167.105C296.201 167.424 295.346 167.711 294.538 168.014C294.143 168.174 293.747 168.334 293.367 168.477C292.987 168.621 292.607 168.765 292.259 168.908C290.85 169.515 289.599 169.977 288.744 170.376C288.317 170.584 287.953 170.696 287.731 170.807C287.494 170.903 287.367 170.967 287.367 170.967C287.367 170.967 287.573 171.302 287.985 171.797C288.412 172.291 289.045 172.978 289.948 173.664C290.834 174.318 291.974 174.988 293.43 175.483C294.159 175.739 294.95 175.898 295.805 176.01C296.66 176.106 297.625 176.153 298.623 176.074C299.62 175.978 300.649 175.802 301.678 175.531C302.691 175.244 303.688 174.893 304.686 174.478C305.651 174.047 306.601 173.552 307.504 173.057C308.39 172.547 309.213 171.988 309.973 171.462C310.163 171.334 310.353 171.19 310.543 171.063C310.717 170.919 310.891 170.791 311.065 170.648C311.398 170.376 311.73 170.121 312.031 169.866C312.633 169.355 313.171 168.908 313.583 168.493C314.422 167.695 314.881 167.185 314.881 167.185C314.881 167.185 314.564 166.977 313.947 166.69C313.345 166.403 312.459 166.067 311.366 165.78C310.812 165.637 310.211 165.509 309.562 165.413C308.897 165.301 308.184 165.238 307.44 165.206C306.68 165.174 305.889 165.19 305.066 165.254C304.227 165.301 303.34 165.413 302.438 165.589L302.406 165.621Z" fill="#8DBFFF" fill-opacity="0.2"/>
<path d="M284.597 176.265C283.6 176.074 282.602 175.946 281.605 175.866C280.608 175.738 279.61 175.675 278.629 175.643C277.647 175.563 276.697 175.531 275.779 175.515C274.861 175.451 273.975 175.435 273.167 175.435C271.521 175.355 270.112 175.371 269.115 175.324C268.117 175.308 267.516 175.324 267.516 175.324C267.516 175.324 267.563 175.738 267.753 176.409C267.943 177.079 268.276 178.005 268.861 179.074C269.146 179.601 269.51 180.159 269.938 180.718C270.159 181.005 270.397 181.292 270.65 181.563C270.904 181.835 271.188 182.106 271.489 182.377C272.107 182.92 272.819 183.431 273.642 183.925C274.465 184.404 275.399 184.787 276.46 185.154C277.521 185.521 278.629 185.713 279.8 185.872C280.972 186.048 282.143 186.048 283.33 186.016C284.518 186.016 285.673 185.856 286.797 185.681C287.937 185.537 288.998 185.266 289.995 184.995C290.502 184.867 290.977 184.739 291.452 184.596C291.911 184.436 292.338 184.292 292.75 184.133C293.573 183.83 294.301 183.574 294.887 183.303C296.058 182.76 296.739 182.409 296.739 182.409C296.739 182.409 296.486 182.074 295.963 181.579C295.457 181.085 294.665 180.414 293.652 179.744C292.639 179.09 291.341 178.356 289.837 177.749C288.333 177.159 286.576 176.584 284.613 176.265H284.597Z" fill="#8DBFFF" fill-opacity="0.2"/>
<path d="M305.224 75.4535C307.377 76.2514 309.261 78.0069 310.559 79.5549C311.192 80.3369 311.715 81.0391 312.031 81.5817C312.364 82.1083 312.538 82.4434 312.538 82.4434C312.538 82.4434 311.588 82.8105 310.163 82.9062C308.723 83.002 306.807 82.8743 304.797 81.9806C302.802 81.071 301.045 79.6507 299.763 78.4697C299.446 78.1665 299.145 77.8952 298.892 77.6398C298.639 77.3845 298.401 77.1611 298.211 76.9696C297.847 76.5866 297.641 76.3472 297.641 76.3472C297.641 76.3472 298.464 75.7567 299.81 75.3418C300.491 75.1343 301.314 74.9588 302.232 74.9428C303.134 74.9428 304.163 75.0705 305.224 75.4694V75.4535Z" fill="#8DBFFF" fill-opacity="0.2"/>
<path d="M314.057 92.2102C316.1 93.7103 317.619 96.1201 318.537 98.1469C318.775 98.6576 318.965 99.1363 319.139 99.5672C319.297 100.014 319.424 100.397 319.535 100.732C319.741 101.387 319.836 101.801 319.836 101.801C319.836 101.801 318.727 101.897 317.16 101.594C316.369 101.434 315.482 101.179 314.564 100.764C313.614 100.365 312.68 99.7906 311.73 99.0406C309.862 97.4926 308.406 95.4498 307.377 93.7742C306.87 92.9443 306.443 92.1942 306.158 91.6676C305.889 91.125 305.731 90.8058 305.731 90.8058C305.731 90.8058 306 90.7101 306.459 90.6143C306.918 90.5186 307.583 90.4069 308.358 90.4069C309.134 90.4069 310.052 90.4707 311.034 90.742C312.015 91.0133 313.044 91.4761 314.073 92.2102H314.057Z" fill="#8DBFFF" fill-opacity="0.2"/>
<path d="M318.3 110.611C320.026 112.765 320.896 115.749 321.165 118.175C321.229 118.782 321.308 119.356 321.324 119.867C321.324 120.377 321.324 120.84 321.324 121.207C321.324 121.973 321.276 122.42 321.276 122.42C321.276 122.42 320.975 122.356 320.501 122.165C320.01 121.989 319.329 121.686 318.585 121.255C317.825 120.824 316.986 120.25 316.163 119.532C315.324 118.814 314.485 117.936 313.773 116.882C312.3 114.776 311.414 112.334 310.781 110.339C310.638 109.845 310.496 109.382 310.385 108.967C310.274 108.552 310.179 108.169 310.116 107.866C309.957 107.243 309.878 106.86 309.878 106.86C309.878 106.86 311.097 106.765 312.759 107.148C313.598 107.339 314.532 107.674 315.498 108.233C316.48 108.775 317.414 109.541 318.3 110.627V110.611Z" fill="#8DBFFF" fill-opacity="0.2"/>
<path d="M316.891 129.155C317.904 131.948 317.762 135.347 317.16 137.916C317.097 138.235 317.034 138.555 316.955 138.842C316.86 139.145 316.78 139.416 316.701 139.688C316.543 140.214 316.385 140.677 316.242 141.076C316.115 141.475 315.973 141.762 315.878 141.97C315.783 142.177 315.736 142.289 315.736 142.289C315.736 142.289 315.451 142.113 315.023 141.746C314.596 141.379 314.026 140.837 313.408 140.118C312.142 138.666 310.796 136.576 310.037 133.879C309.277 131.198 309.245 128.405 309.277 126.234C309.308 125.692 309.277 125.181 309.324 124.734C309.34 124.287 309.388 123.888 309.419 123.553C309.451 122.899 309.498 122.5 309.498 122.5C309.498 122.5 309.815 122.58 310.337 122.771C310.86 122.963 311.588 123.266 312.395 123.745C313.219 124.224 314.042 124.862 314.865 125.756C315.261 126.186 315.656 126.697 316.021 127.256C316.353 127.83 316.654 128.453 316.907 129.155H316.891Z" fill="#8DBFFF" fill-opacity="0.2"/>
<path d="M309.688 146.183C309.688 146.582 309.704 146.997 309.688 147.396C309.657 147.795 309.609 148.21 309.53 148.609C309.403 149.422 309.213 150.236 308.96 151.002C308.833 151.385 308.691 151.768 308.548 152.151C308.469 152.343 308.406 152.534 308.327 152.71C308.248 152.886 308.169 153.061 308.074 153.237C307.741 153.939 307.377 154.609 307.029 155.231C306.269 156.428 305.572 157.45 304.987 158.12C304.417 158.79 304.053 159.173 304.053 159.173C304.053 159.173 303.831 158.886 303.514 158.359C303.198 157.833 302.802 157.067 302.422 156.125C302.042 155.184 301.694 154.066 301.425 152.774C301.171 151.497 301.045 150.125 301.092 148.625C301.219 145.64 302.09 142.8 302.834 140.597C303.039 140.055 303.198 139.544 303.372 139.097C303.546 138.65 303.72 138.267 303.847 137.932C304.1 137.278 304.29 136.895 304.29 136.895C304.29 136.895 304.591 137.086 305.066 137.453C305.541 137.82 306.174 138.379 306.839 139.145C307.171 139.512 307.519 139.959 307.836 140.438C308.153 140.916 308.453 141.443 308.723 142.034C308.992 142.624 309.213 143.262 309.403 143.965C309.562 144.651 309.672 145.401 309.704 146.199L309.688 146.183Z" fill="#8DBFFF" fill-opacity="0.2"/>
<path d="M297.657 160.019C297.166 161.647 296.327 163.243 295.267 164.615C294.76 165.333 294.174 165.956 293.589 166.562C293.304 166.865 293.003 167.153 292.702 167.424C292.401 167.679 292.101 167.935 291.8 168.174C290.628 169.164 289.489 169.818 288.681 170.313C288.285 170.568 287.921 170.712 287.7 170.823C287.462 170.935 287.336 170.983 287.336 170.983C287.336 170.983 287.225 170.616 287.114 169.977C287.003 169.339 286.892 168.413 286.876 167.328C286.845 166.211 286.892 164.934 287.098 163.594C287.209 162.94 287.336 162.221 287.51 161.503C287.684 160.785 287.921 160.083 288.206 159.349C289.346 156.46 291.072 153.955 292.496 152.024C292.591 151.912 292.686 151.784 292.765 151.673C292.845 151.561 292.94 151.449 293.019 151.338C293.193 151.114 293.351 150.907 293.509 150.715C293.826 150.332 294.111 149.997 294.333 149.71C294.792 149.135 295.093 148.832 295.093 148.832C295.093 148.832 295.346 149.119 295.71 149.646C296.074 150.173 296.549 150.955 296.992 151.944C297.214 152.439 297.42 152.981 297.594 153.588C297.768 154.178 297.895 154.817 297.989 155.487C298.069 156.173 298.116 156.907 298.053 157.673C297.989 158.423 297.863 159.221 297.625 160.051L297.657 160.019Z" fill="#8DBFFF" fill-opacity="0.2"/>
<path d="M301.171 62.9897C303.657 65.176 305.066 67.9209 305.794 69.9796C305.968 70.5063 306.126 70.985 306.237 71.4159C306.348 71.8468 306.427 72.2298 306.49 72.549C306.601 73.1714 306.649 73.5384 306.649 73.5384C306.649 73.5384 306.301 73.4108 305.731 73.1395C305.446 72.9958 305.097 72.8362 304.717 72.6288C304.322 72.4373 303.894 72.2139 303.419 71.9585C301.551 70.9372 299.208 69.5168 297.04 67.6018C294.887 65.6867 293.209 63.5802 291.911 61.9204C291.594 61.5055 291.309 61.1065 291.04 60.7554C290.787 60.4203 290.549 60.1171 290.375 59.8458C290.011 59.3351 289.805 59 289.805 59C289.805 59 290.169 58.9681 290.818 58.984C291.135 58.984 291.547 59 291.99 59.0319C292.433 59.0798 292.94 59.1596 293.509 59.2553C294.079 59.3511 294.665 59.5107 295.283 59.7022C295.599 59.7979 295.916 59.9096 296.248 60.0213C296.565 60.149 296.897 60.2926 297.23 60.4363C297.562 60.5799 297.895 60.7554 298.243 60.915C298.575 61.1065 298.892 61.298 299.24 61.5055C299.573 61.713 299.905 61.9364 300.222 62.1758C300.538 62.4152 300.855 62.6865 301.171 62.9578V62.9897Z" fill="#8DBFFF" fill-opacity="0.2"/>
<path d="M282.001 168.828C281.462 169.531 280.829 170.201 280.133 170.823C279.436 171.398 278.676 171.94 277.901 172.435C277.109 172.882 276.286 173.297 275.479 173.648C274.655 173.967 273.848 174.238 273.072 174.478C271.521 174.861 270.128 175.132 269.115 175.18C268.117 175.26 267.516 175.276 267.516 175.276C267.516 175.276 267.579 174.861 267.753 174.175C267.927 173.488 268.228 172.547 268.671 171.462C268.893 170.919 269.146 170.344 269.447 169.754C269.59 169.467 269.748 169.163 269.922 168.876C270.096 168.557 270.27 168.254 270.46 167.935C270.84 167.312 271.252 166.69 271.711 166.083C272.17 165.477 272.661 164.839 273.215 164.248C275.399 161.886 277.869 160.163 279.848 158.838C280.101 158.679 280.339 158.535 280.576 158.391C280.798 158.232 281.019 158.088 281.225 157.96C281.637 157.689 282.017 157.498 282.333 157.29C282.951 156.907 283.346 156.716 283.346 156.716C283.346 156.716 283.505 157.099 283.695 157.753C283.885 158.407 284.106 159.349 284.217 160.514C284.328 161.679 284.312 162.971 284.011 164.408C283.71 165.86 283.093 167.312 282.032 168.796L282.001 168.828Z" fill="#8DBFFF" fill-opacity="0.2"/>
</g>
<defs>
<clipPath id="clip0_510_6642">
<rect width="172" height="212" fill="white" transform="translate(80.5)"/>
</clipPath>
<clipPath id="clip1_510_6642">
<rect width="65" height="127" fill="white" transform="translate(0.5 59)"/>
</clipPath>
<clipPath id="clip2_510_6642">
<rect width="65" height="127" fill="white" transform="matrix(-1 0 0 1 332.5 59)"/>
</clipPath>
</defs>
</svg>
