<svg width="390" height="154" viewBox="0 0 390 154" fill="none" xmlns="http://www.w3.org/2000/svg">
<path fill-rule="evenodd" clip-rule="evenodd" d="M185.228 44.8367C189.082 44.8367 191.009 45.852 191.009 47.8826V50.9504C191.009 52.6327 189.274 53.4757 185.803 53.4757H171.808C171.2 53.4757 170.728 53.659 170.396 54.0218C170.065 54.3884 169.899 54.7879 169.899 55.2204C169.899 55.5136 169.976 55.7922 170.135 56.0524C170.293 56.3126 170.518 56.5032 170.816 56.6242L190.755 65.8349C190.965 65.9412 191.164 65.9925 191.356 65.9925C191.794 65.9925 192.155 65.8056 192.443 65.4317C192.73 65.0579 192.874 64.6657 192.874 64.2479C192.874 64.0023 192.811 63.7714 192.689 63.5441C192.568 63.3206 192.369 63.1446 192.089 63.0237L176.414 56.2576H185.464C191.496 56.2576 194.513 54.3847 194.513 50.6388V48.0878C194.513 44.0304 191.238 41.9998 184.679 41.9998H167.858C166.863 41.9998 166.365 42.4946 166.365 43.4843C166.365 44.3859 166.863 44.8367 167.858 44.8367H185.228ZM138.283 65.2923L151.339 45.8042L164.364 65.2667V65.241C164.519 65.5012 164.729 65.6918 164.991 65.8128C165.253 65.9337 165.521 65.996 165.802 65.996C166.236 65.996 166.642 65.8568 167.018 65.5782C167.393 65.3033 167.581 64.9368 167.581 64.486C167.581 64.2074 167.46 63.8959 167.217 63.5477H167.242L153.561 43.2788C153.262 42.8427 152.908 42.5238 152.499 42.3149C152.09 42.106 151.685 42.0033 151.283 42.0033C150.849 42.0033 150.432 42.1133 150.042 42.3295C149.651 42.5458 149.316 42.861 149.036 43.2788L135.38 63.5733L135.406 63.5477C135.284 63.7053 135.203 63.8592 135.17 64.0168C135.137 64.1744 135.118 64.3137 135.118 64.4346C135.118 64.9038 135.31 65.2813 135.693 65.5672C136.076 65.8531 136.489 65.996 136.924 65.996C137.219 65.996 137.48 65.9411 137.709 65.8384C137.933 65.7358 138.125 65.5525 138.283 65.2923ZM199.481 44.8402C198.607 44.8402 198.173 44.3454 198.173 43.3558C198.173 42.4542 198.607 42.0033 199.481 42.0033H222.555C223.391 42.0033 223.812 42.4542 223.812 43.3558C223.812 44.3454 223.391 44.8402 222.555 44.8402H199.481ZM212.772 64.5116C212.772 65.5012 212.186 65.996 211.018 65.996C209.85 65.996 209.238 65.5012 209.238 64.5116V49.4181C209.238 48.2562 209.824 47.6735 210.992 47.6735C212.16 47.6735 212.772 48.2562 212.772 49.4181V64.5116ZM254.882 64.4861C254.882 64.1379 254.709 63.8007 254.359 63.4708L254.348 63.4818L230.245 42.5606C229.914 42.2821 229.556 42.1428 229.173 42.1428C228.716 42.1428 228.325 42.3077 227.994 42.6376C227.662 42.9675 227.496 43.3486 227.496 43.7298C227.496 44.111 227.662 44.4409 227.994 44.7194L238.798 54.0622L227.968 63.4562C227.795 63.5955 227.673 63.7457 227.603 63.9107C227.533 64.0756 227.5 64.2332 227.5 64.3908C227.5 64.5997 227.548 64.7977 227.644 64.9883C227.74 65.1788 227.865 65.3474 228.023 65.4941C228.182 65.6407 228.362 65.7616 228.561 65.8569C228.764 65.9522 228.967 65.9999 229.177 65.9999C229.35 65.9999 229.527 65.9669 229.7 65.9082C229.873 65.8459 230.039 65.747 230.197 65.6077L241.134 56.1367L252.103 65.6333C252.243 65.7726 252.402 65.8679 252.575 65.9192C252.748 65.9705 252.925 65.9962 253.098 65.9962C253.327 65.9962 253.544 65.9559 253.754 65.8789C253.964 65.7983 254.152 65.692 254.318 65.5527C254.484 65.4134 254.617 65.2558 254.723 65.0726C254.83 64.8893 254.882 64.695 254.882 64.4861ZM245.865 51.4598C246.304 51.4598 246.713 51.2949 247.096 50.965H247.099L254.222 44.7341C254.432 44.5435 254.58 44.3456 254.668 44.1477C254.753 43.9461 254.797 43.7518 254.797 43.5612C254.797 43.1617 254.646 42.8025 254.351 42.48C254.056 42.1611 253.673 41.9998 253.253 41.9998C252.833 41.9998 252.406 42.1904 251.971 42.5716L244.822 48.8538C244.612 49.0444 244.465 49.2314 244.376 49.4146C244.288 49.5979 244.244 49.7848 244.244 49.9754C244.244 50.3749 244.402 50.7231 244.726 51.0163C245.051 51.3132 245.427 51.4598 245.865 51.4598Z" fill="#262626"/>
<path d="M39.5833 100V90.8403H42.7254C43.631 90.8403 44.4054 91.0223 45.0486 91.3862C45.6961 91.7459 46.1912 92.2664 46.534 92.9478C46.8768 93.6291 47.0481 94.45 47.0481 95.4106V95.4233C47.0481 96.384 46.8768 97.207 46.534 97.8926C46.1912 98.5739 45.6982 99.0965 45.055 99.4604C44.4117 99.8201 43.6352 100 42.7254 100H39.5833ZM40.7259 98.9717H42.6492C43.3305 98.9717 43.9124 98.832 44.3948 98.5527C44.8772 98.2734 45.2454 97.8693 45.4993 97.3403C45.7532 96.8114 45.8802 96.1766 45.8802 95.436V95.4233C45.8802 94.6785 45.7511 94.0417 45.493 93.5127C45.2391 92.9795 44.8709 92.5732 44.3885 92.2939C43.9061 92.0104 43.3263 91.8687 42.6492 91.8687H40.7259V98.9717ZM50.3679 100.121C49.9362 100.121 49.5469 100.038 49.1999 99.873C48.8571 99.708 48.5842 99.4731 48.3811 99.1685C48.1822 98.8638 48.0827 98.5041 48.0827 98.0894V98.0767C48.0827 97.6704 48.18 97.3234 48.3747 97.0356C48.5694 96.7437 48.8529 96.5151 49.2253 96.3501C49.5977 96.1851 50.0484 96.0877 50.5773 96.0581L53.091 95.9058V96.7881L50.7106 96.9404C50.1901 96.9701 49.8093 97.078 49.5681 97.2642C49.3311 97.4504 49.2126 97.7127 49.2126 98.0513V98.064C49.2126 98.411 49.3438 98.6818 49.6061 98.8765C49.8685 99.0669 50.1986 99.1621 50.5964 99.1621C50.973 99.1621 51.3073 99.0881 51.5993 98.9399C51.8913 98.7876 52.1198 98.5824 52.2849 98.3242C52.4541 98.0661 52.5388 97.7741 52.5388 97.4482V95.3154C52.5388 94.8923 52.4097 94.5706 52.1516 94.3506C51.8977 94.1263 51.5147 94.0142 51.0026 94.0142C50.5922 94.0142 50.2557 94.0882 49.9934 94.2363C49.731 94.3802 49.5554 94.5854 49.4665 94.8521L49.4602 94.8711H48.3557L48.362 94.833C48.4213 94.4733 48.5694 94.1602 48.8063 93.8936C49.0476 93.6227 49.3586 93.4132 49.7395 93.2651C50.1203 93.1128 50.5541 93.0366 51.0407 93.0366C51.5993 93.0366 52.0712 93.1276 52.4562 93.3096C52.8456 93.4915 53.1397 93.7539 53.3386 94.0967C53.5417 94.4352 53.6433 94.8415 53.6433 95.3154V100H52.5388V98.9907H52.4372C52.2933 99.2319 52.1177 99.4372 51.9103 99.6064C51.7072 99.7757 51.4766 99.9048 51.2185 99.9937C50.9603 100.078 50.6768 100.121 50.3679 100.121ZM56.9439 100L54.4112 93.1572H55.5792L57.4518 98.7939H57.5533L59.4259 93.1572H60.5938L58.0611 100H56.9439ZM61.6792 100V93.1572H62.7837V100H61.6792ZM62.2378 91.8369C62.0304 91.8369 61.8506 91.7629 61.6982 91.6147C61.5501 91.4624 61.4761 91.2826 61.4761 91.0752C61.4761 90.8636 61.5501 90.6838 61.6982 90.5356C61.8506 90.3875 62.0304 90.3135 62.2378 90.3135C62.4494 90.3135 62.6292 90.3875 62.7773 90.5356C62.9255 90.6838 62.9995 90.8636 62.9995 91.0752C62.9995 91.2826 62.9255 91.4624 62.7773 91.6147C62.6292 91.7629 62.4494 91.8369 62.2378 91.8369ZM66.9921 100.121C66.4166 100.121 65.913 99.9746 65.4813 99.6826C65.0497 99.3906 64.7154 98.9801 64.4784 98.4512C64.2414 97.918 64.1229 97.2959 64.1229 96.585V96.5723C64.1229 95.8571 64.2414 95.235 64.4784 94.7061C64.7154 94.1771 65.0476 93.7666 65.475 93.4746C65.9066 93.1826 66.4123 93.0366 66.9921 93.0366C67.3052 93.0366 67.5993 93.0874 67.8744 93.189C68.1537 93.2863 68.4013 93.4238 68.6171 93.6016C68.8329 93.7793 69.0022 93.9909 69.1249 94.2363H69.2265V90.4404H70.331V100H69.2265V98.9082H69.1249C68.9853 99.1621 68.8096 99.38 68.598 99.562C68.3865 99.7397 68.1452 99.8773 67.8744 99.9746C67.6036 100.072 67.3095 100.121 66.9921 100.121ZM67.246 99.1431C67.6607 99.1431 68.0183 99.0394 68.3187 98.832C68.6192 98.6247 68.8498 98.3306 69.0106 97.9497C69.1714 97.5646 69.2519 97.1097 69.2519 96.585V96.5723C69.2519 96.0433 69.1714 95.5884 69.0106 95.2075C68.8498 94.8267 68.6192 94.5326 68.3187 94.3252C68.0183 94.1178 67.6607 94.0142 67.246 94.0142C66.8313 94.0142 66.4737 94.1178 66.1732 94.3252C65.877 94.5283 65.6485 94.8203 65.4877 95.2012C65.3311 95.582 65.2528 96.0391 65.2528 96.5723V96.585C65.2528 97.1139 65.3311 97.571 65.4877 97.9561C65.6485 98.3369 65.877 98.631 66.1732 98.8384C66.4737 99.0415 66.8313 99.1431 67.246 99.1431ZM79.2429 100.216C78.6081 100.216 78.0347 100.104 77.5227 99.8794C77.0148 99.6551 76.579 99.3335 76.215 98.9146C75.8553 98.4956 75.5782 97.992 75.3835 97.4038C75.1888 96.8156 75.0915 96.1554 75.0915 95.4233V95.4106C75.0915 94.4458 75.2629 93.6058 75.6057 92.8906C75.9484 92.1712 76.4309 91.6147 77.0529 91.2212C77.6792 90.8234 78.4092 90.6245 79.2429 90.6245C79.9199 90.6245 80.523 90.7451 81.0519 90.9863C81.5852 91.2233 82.0231 91.5576 82.3659 91.9893C82.7129 92.4209 82.9457 92.9266 83.0642 93.5063L83.0769 93.5698H81.9216L81.9025 93.5063C81.7163 92.9139 81.3968 92.4611 80.944 92.1479C80.4912 91.8348 79.9242 91.6782 79.2429 91.6782C78.6377 91.6782 78.1109 91.8327 77.6623 92.1416C77.218 92.4463 76.8731 92.8779 76.6276 93.4365C76.3822 93.9951 76.2595 94.6532 76.2595 95.4106V95.4233C76.2595 95.9989 76.3272 96.5173 76.4626 96.9785C76.6022 97.4398 76.8011 97.8333 77.0593 98.1592C77.3216 98.4808 77.6369 98.7284 78.0051 98.9019C78.3732 99.0754 78.788 99.1621 79.2492 99.1621C79.7951 99.1621 80.2733 99.0542 80.6838 98.8384C81.0985 98.6183 81.4201 98.3136 81.6486 97.9243C81.8771 97.535 81.9914 97.0822 81.9914 96.5659V96.3438H79.4206V95.3408H83.134V96.458C83.134 97.0208 83.0409 97.5329 82.8547 97.9941C82.6727 98.4554 82.4103 98.8532 82.0676 99.1875C81.7248 99.5176 81.3143 99.7715 80.8361 99.9492C80.3579 100.127 79.8269 100.216 79.2429 100.216ZM87.4312 100.121C86.7838 100.121 86.2231 99.9788 85.7491 99.6953C85.2794 99.4076 84.9155 98.9992 84.6573 98.4702C84.4034 97.9412 84.2765 97.3128 84.2765 96.585V96.5723C84.2765 95.8402 84.4034 95.2096 84.6573 94.6807C84.9155 94.1517 85.2794 93.7454 85.7491 93.4619C86.2231 93.1784 86.7838 93.0366 87.4312 93.0366C88.0829 93.0366 88.6437 93.1784 89.1134 93.4619C89.5831 93.7454 89.9449 94.1517 90.1988 94.6807C90.457 95.2096 90.586 95.8402 90.586 96.5723V96.585C90.586 97.3128 90.457 97.9412 90.1988 98.4702C89.9449 98.9992 89.5831 99.4076 89.1134 99.6953C88.6437 99.9788 88.0829 100.121 87.4312 100.121ZM87.4312 99.1431C87.8629 99.1431 88.2289 99.0415 88.5294 98.8384C88.8298 98.6353 89.0584 98.3433 89.2149 97.9624C89.3757 97.5815 89.4562 97.1224 89.4562 96.585V96.5723C89.4562 96.0306 89.3757 95.5693 89.2149 95.1885C89.0584 94.8076 88.8298 94.5177 88.5294 94.3188C88.2289 94.1157 87.8629 94.0142 87.4312 94.0142C86.9996 94.0142 86.6336 94.1157 86.3331 94.3188C86.0326 94.5177 85.802 94.8076 85.6412 95.1885C85.4846 95.5693 85.4063 96.0306 85.4063 96.5723V96.585C85.4063 97.1224 85.4846 97.5815 85.6412 97.9624C85.802 98.3433 86.0326 98.6353 86.3331 98.8384C86.6336 99.0415 86.9996 99.1431 87.4312 99.1431ZM94.7183 102.412C94.1681 102.412 93.6878 102.334 93.2773 102.177C92.8669 102.025 92.5389 101.807 92.2935 101.523C92.0522 101.244 91.902 100.918 91.8428 100.546L91.8555 100.54H92.998L93.0044 100.546C93.0636 100.804 93.2414 101.016 93.5376 101.181C93.8338 101.35 94.2274 101.435 94.7183 101.435C95.3319 101.435 95.8101 101.295 96.1528 101.016C96.4998 100.741 96.6733 100.351 96.6733 99.8477V98.4639H96.5718C96.4279 98.7135 96.248 98.9272 96.0322 99.105C95.8164 99.2827 95.5731 99.4181 95.3022 99.5112C95.0314 99.6001 94.7394 99.6445 94.4263 99.6445C93.838 99.6445 93.3281 99.5049 92.8965 99.2256C92.4691 98.9421 92.139 98.5527 91.9062 98.0576C91.6735 97.5625 91.5571 96.9954 91.5571 96.3564V96.3438C91.5571 95.7048 91.6735 95.1377 91.9062 94.6426C92.1432 94.1432 92.4775 93.7518 92.9092 93.4683C93.3408 93.1805 93.855 93.0366 94.4517 93.0366C94.7733 93.0366 95.0695 93.0874 95.3403 93.189C95.6112 93.2905 95.8503 93.4344 96.0576 93.6206C96.2692 93.8068 96.4448 94.029 96.5845 94.2871H96.6606V93.1572H97.7651V99.9048C97.7651 100.413 97.6403 100.855 97.3906 101.231C97.1452 101.608 96.7939 101.898 96.3369 102.101C95.8799 102.308 95.3403 102.412 94.7183 102.412ZM94.6675 98.667C95.0907 98.667 95.4525 98.5697 95.7529 98.375C96.0576 98.1761 96.2904 97.9032 96.4512 97.5562C96.6162 97.2091 96.6987 96.8092 96.6987 96.3564V96.3438C96.6987 95.891 96.6162 95.4889 96.4512 95.1377C96.2904 94.7865 96.0576 94.5114 95.7529 94.3125C95.4525 94.1136 95.0907 94.0142 94.6675 94.0142C94.2443 94.0142 93.8846 94.1136 93.5884 94.3125C93.2964 94.5114 93.0721 94.7865 92.9155 95.1377C92.7632 95.4889 92.687 95.891 92.687 96.3438V96.3564C92.687 96.8092 92.7632 97.2091 92.9155 97.5562C93.0721 97.9032 93.2964 98.1761 93.5884 98.375C93.8846 98.5697 94.2443 98.667 94.6675 98.667ZM102.24 102.412C101.69 102.412 101.21 102.334 100.799 102.177C100.389 102.025 100.061 101.807 99.8153 101.523C99.5741 101.244 99.4239 100.918 99.3646 100.546L99.3773 100.54H100.52L100.526 100.546C100.586 100.804 100.763 101.016 101.059 101.181C101.356 101.35 101.749 101.435 102.24 101.435C102.854 101.435 103.332 101.295 103.675 101.016C104.022 100.741 104.195 100.351 104.195 99.8477V98.4639H104.094C103.95 98.7135 103.77 98.9272 103.554 99.105C103.338 99.2827 103.095 99.4181 102.824 99.5112C102.553 99.6001 102.261 99.6445 101.948 99.6445C101.36 99.6445 100.85 99.5049 100.418 99.2256C99.9909 98.9421 99.6609 98.5527 99.4281 98.0576C99.1954 97.5625 99.079 96.9954 99.079 96.3564V96.3438C99.079 95.7048 99.1954 95.1377 99.4281 94.6426C99.6651 94.1432 99.9994 93.7518 100.431 93.4683C100.863 93.1805 101.377 93.0366 101.974 93.0366C102.295 93.0366 102.591 93.0874 102.862 93.189C103.133 93.2905 103.372 93.4344 103.579 93.6206C103.791 93.8068 103.967 94.029 104.106 94.2871H104.183V93.1572H105.287V99.9048C105.287 100.413 105.162 100.855 104.912 101.231C104.667 101.608 104.316 101.898 103.859 102.101C103.402 102.308 102.862 102.412 102.24 102.412ZM102.189 98.667C102.613 98.667 102.974 98.5697 103.275 98.375C103.579 98.1761 103.812 97.9032 103.973 97.5562C104.138 97.2091 104.221 96.8092 104.221 96.3564V96.3438C104.221 95.891 104.138 95.4889 103.973 95.1377C103.812 94.7865 103.579 94.5114 103.275 94.3125C102.974 94.1136 102.613 94.0142 102.189 94.0142C101.766 94.0142 101.406 94.1136 101.11 94.3125C100.818 94.5114 100.594 94.7865 100.437 95.1377C100.285 95.4889 100.209 95.891 100.209 96.3438V96.3564C100.209 96.8092 100.285 97.2091 100.437 97.5562C100.594 97.9032 100.818 98.1761 101.11 98.375C101.406 98.5697 101.766 98.667 102.189 98.667ZM106.969 100V93.1572H108.074V100H106.969ZM107.528 91.8369C107.32 91.8369 107.14 91.7629 106.988 91.6147C106.84 91.4624 106.766 91.2826 106.766 91.0752C106.766 90.8636 106.84 90.6838 106.988 90.5356C107.14 90.3875 107.32 90.3135 107.528 90.3135C107.739 90.3135 107.919 90.3875 108.067 90.5356C108.215 90.6838 108.289 90.8636 108.289 91.0752C108.289 91.2826 108.215 91.4624 108.067 91.6147C107.919 91.7629 107.739 91.8369 107.528 91.8369ZM109.756 100V93.1572H110.86V94.1855H110.962C111.135 93.8216 111.385 93.5402 111.711 93.3413C112.036 93.1382 112.451 93.0366 112.955 93.0366C113.725 93.0366 114.315 93.2567 114.726 93.6968C115.14 94.1326 115.348 94.7568 115.348 95.5693V100H114.243V95.8359C114.243 95.2181 114.112 94.7611 113.85 94.4648C113.592 94.1644 113.19 94.0142 112.644 94.0142C112.28 94.0142 111.965 94.0924 111.698 94.249C111.431 94.4056 111.224 94.6278 111.076 94.9155C110.932 95.2033 110.86 95.5482 110.86 95.9502V100H109.756ZM119.296 100.121C118.788 100.121 118.34 100.044 117.95 99.8921C117.561 99.7355 117.248 99.5176 117.011 99.2383C116.778 98.959 116.641 98.631 116.598 98.2544H117.728C117.821 98.5379 118.003 98.7664 118.274 98.9399C118.545 99.1134 118.898 99.2002 119.334 99.2002C119.643 99.2002 119.914 99.1558 120.147 99.0669C120.384 98.9738 120.57 98.849 120.705 98.6924C120.841 98.5316 120.908 98.3475 120.908 98.1401V98.1274C120.908 97.8947 120.815 97.6979 120.629 97.5371C120.443 97.3721 120.138 97.2388 119.715 97.1372L118.655 96.8833C118.227 96.7817 117.876 96.6506 117.601 96.4897C117.326 96.3247 117.123 96.1237 116.992 95.8867C116.861 95.6455 116.795 95.362 116.795 95.0361V95.0298C116.795 94.6489 116.905 94.3083 117.125 94.0078C117.349 93.7074 117.654 93.4704 118.039 93.2969C118.424 93.1234 118.858 93.0366 119.34 93.0366C119.819 93.0366 120.242 93.1128 120.61 93.2651C120.982 93.4132 121.281 93.6248 121.505 93.8999C121.733 94.175 121.873 94.4987 121.924 94.8711H120.838C120.767 94.6003 120.601 94.3802 120.343 94.2109C120.085 94.0417 119.749 93.957 119.334 93.957C119.063 93.957 118.822 94.0015 118.61 94.0903C118.399 94.175 118.232 94.2935 118.109 94.4458C117.986 94.5981 117.925 94.7759 117.925 94.979V94.9917C117.925 95.144 117.965 95.2795 118.046 95.3979C118.126 95.5164 118.251 95.6201 118.42 95.709C118.589 95.7979 118.807 95.8761 119.074 95.9438L120.128 96.1978C120.771 96.3543 121.249 96.5786 121.562 96.8706C121.879 97.1626 122.038 97.554 122.038 98.0449V98.0576C122.038 98.4639 121.918 98.8236 121.676 99.1367C121.435 99.4456 121.107 99.6868 120.692 99.8604C120.282 100.034 119.816 100.121 119.296 100.121ZM129.947 96.3057V96.3184C129.947 96.5596 129.89 96.7775 129.776 96.9722C129.662 97.1668 129.505 97.3234 129.306 97.4419C129.111 97.5562 128.893 97.6133 128.652 97.6133H128.64C128.398 97.6133 128.18 97.5562 127.986 97.4419C127.791 97.3234 127.635 97.1668 127.516 96.9722C127.402 96.7775 127.345 96.5596 127.345 96.3184V96.3057C127.345 96.0645 127.402 95.8465 127.516 95.6519C127.635 95.453 127.791 95.2964 127.986 95.1821C128.18 95.0679 128.398 95.0107 128.64 95.0107H128.652C128.893 95.0107 129.111 95.0679 129.306 95.1821C129.505 95.2964 129.662 95.453 129.776 95.6519C129.89 95.8465 129.947 96.0645 129.947 96.3057ZM136.307 96.731V95.7153H138.897C139.553 95.7153 140.061 95.5461 140.421 95.2075C140.78 94.8647 140.96 94.3929 140.96 93.792V93.7793C140.96 93.1742 140.78 92.7023 140.421 92.3638C140.061 92.0252 139.553 91.856 138.897 91.856H136.307V90.8403H139.189C139.765 90.8403 140.272 90.9631 140.713 91.2085C141.153 91.4539 141.498 91.7967 141.747 92.2368C142.001 92.6769 142.128 93.1868 142.128 93.7666V93.7793C142.128 94.359 142.001 94.8711 141.747 95.3154C141.498 95.7598 141.153 96.1068 140.713 96.3564C140.272 96.6061 139.765 96.731 139.189 96.731H136.307ZM135.736 100V90.8403H136.879V100H135.736ZM145.753 100.121C145.236 100.121 144.803 100.023 144.451 99.8286C144.1 99.6297 143.836 99.342 143.658 98.9653C143.484 98.5845 143.398 98.1253 143.398 97.5879V93.1572H144.502V97.3213C144.502 97.9349 144.621 98.3919 144.858 98.6924C145.099 98.9928 145.492 99.1431 146.038 99.1431C146.339 99.1431 146.603 99.0986 146.832 99.0098C147.064 98.9209 147.259 98.7939 147.416 98.6289C147.572 98.4596 147.689 98.2565 147.765 98.0195C147.845 97.7783 147.885 97.5075 147.885 97.207V93.1572H148.99V100H147.885V98.978H147.784C147.674 99.2192 147.524 99.4266 147.333 99.6001C147.143 99.7694 146.914 99.8984 146.648 99.9873C146.385 100.076 146.087 100.121 145.753 100.121ZM150.653 102.285V93.1572H151.757V94.249H151.859C151.999 93.9951 152.174 93.7793 152.386 93.6016C152.597 93.4196 152.839 93.2799 153.109 93.1826C153.38 93.0853 153.674 93.0366 153.992 93.0366C154.571 93.0366 155.075 93.1847 155.502 93.481C155.934 93.7729 156.268 94.1834 156.505 94.7124C156.742 95.2414 156.861 95.8613 156.861 96.5723V96.585C156.861 97.3001 156.742 97.9222 156.505 98.4512C156.268 98.9801 155.934 99.3906 155.502 99.6826C155.075 99.9746 154.571 100.121 153.992 100.121C153.679 100.121 153.382 100.072 153.103 99.9746C152.828 99.873 152.583 99.7334 152.367 99.5557C152.155 99.3779 151.986 99.1663 151.859 98.9209H151.757V102.285H150.653ZM153.738 99.1431C154.157 99.1431 154.514 99.0415 154.811 98.8384C155.107 98.631 155.333 98.3369 155.49 97.9561C155.651 97.571 155.731 97.1139 155.731 96.585V96.5723C155.731 96.0391 155.651 95.582 155.49 95.2012C155.333 94.8203 155.107 94.5283 154.811 94.3252C154.514 94.1178 154.157 94.0142 153.738 94.0142C153.323 94.0142 152.965 94.1178 152.665 94.3252C152.365 94.5326 152.134 94.8267 151.973 95.2075C151.812 95.5884 151.732 96.0433 151.732 96.5723V96.585C151.732 97.1097 151.812 97.5646 151.973 97.9497C152.134 98.3306 152.365 98.6247 152.665 98.832C152.965 99.0394 153.323 99.1431 153.738 99.1431ZM158.187 102.285V93.1572H159.292V94.249H159.393C159.533 93.9951 159.709 93.7793 159.92 93.6016C160.132 93.4196 160.373 93.2799 160.644 93.1826C160.915 93.0853 161.209 93.0366 161.526 93.0366C162.106 93.0366 162.61 93.1847 163.037 93.481C163.469 93.7729 163.803 94.1834 164.04 94.7124C164.277 95.2414 164.395 95.8613 164.395 96.5723V96.585C164.395 97.3001 164.277 97.9222 164.04 98.4512C163.803 98.9801 163.469 99.3906 163.037 99.6826C162.61 99.9746 162.106 100.121 161.526 100.121C161.213 100.121 160.917 100.072 160.638 99.9746C160.363 99.873 160.117 99.7334 159.901 99.5557C159.69 99.3779 159.52 99.1663 159.393 98.9209H159.292V102.285H158.187ZM161.272 99.1431C161.691 99.1431 162.049 99.0415 162.345 98.8384C162.641 98.631 162.868 98.3369 163.024 97.9561C163.185 97.571 163.266 97.1139 163.266 96.585V96.5723C163.266 96.0391 163.185 95.582 163.024 95.2012C162.868 94.8203 162.641 94.5283 162.345 94.3252C162.049 94.1178 161.691 94.0142 161.272 94.0142C160.858 94.0142 160.5 94.1178 160.2 94.3252C159.899 94.5326 159.669 94.8267 159.508 95.2075C159.347 95.5884 159.267 96.0433 159.267 96.5723V96.585C159.267 97.1097 159.347 97.5646 159.508 97.9497C159.669 98.3306 159.899 98.6247 160.2 98.832C160.5 99.0394 160.858 99.1431 161.272 99.1431ZM166.052 102.399C165.98 102.399 165.9 102.395 165.811 102.387C165.722 102.382 165.639 102.374 165.563 102.361V101.454C165.631 101.466 165.705 101.475 165.785 101.479C165.866 101.483 165.944 101.485 166.02 101.485C166.333 101.485 166.589 101.405 166.788 101.244C166.992 101.083 167.154 100.806 167.277 100.413L167.404 100.006L164.871 93.1572H166.052L168.159 99.4795L167.721 98.7876H168.242L167.804 99.4795L169.905 93.1572H171.067L168.394 100.419C168.204 100.931 168.005 101.331 167.798 101.619C167.595 101.906 167.353 102.107 167.074 102.222C166.799 102.34 166.458 102.399 166.052 102.399ZM178.722 96.3057V96.3184C178.722 96.5596 178.665 96.7775 178.55 96.9722C178.436 97.1668 178.28 97.3234 178.081 97.4419C177.886 97.5562 177.668 97.6133 177.427 97.6133H177.414C177.173 97.6133 176.955 97.5562 176.76 97.4419C176.566 97.3234 176.409 97.1668 176.291 96.9722C176.176 96.7775 176.119 96.5596 176.119 96.3184V96.3057C176.119 96.0645 176.176 95.8465 176.291 95.6519C176.409 95.453 176.566 95.2964 176.76 95.1821C176.955 95.0679 177.173 95.0107 177.414 95.0107H177.427C177.668 95.0107 177.886 95.0679 178.081 95.1821C178.28 95.2964 178.436 95.453 178.55 95.6519C178.665 95.8465 178.722 96.0645 178.722 96.3057ZM184.511 100V90.8403H185.837L188.973 98.4829H189.075L192.21 90.8403H193.537V100H192.471V93.0049H191.912L193.194 91.0942L189.506 100H188.541L184.86 91.0942L186.136 93.0049H185.577V100H184.511ZM197.212 100.121C196.781 100.121 196.391 100.038 196.044 99.873C195.701 99.708 195.429 99.4731 195.225 99.1685C195.026 98.8638 194.927 98.5041 194.927 98.0894V98.0767C194.927 97.6704 195.024 97.3234 195.219 97.0356C195.414 96.7437 195.697 96.5151 196.07 96.3501C196.442 96.1851 196.893 96.0877 197.422 96.0581L199.935 95.9058V96.7881L197.555 96.9404C197.034 96.9701 196.654 97.078 196.412 97.2642C196.175 97.4504 196.057 97.7127 196.057 98.0513V98.064C196.057 98.411 196.188 98.6818 196.45 98.8765C196.713 99.0669 197.043 99.1621 197.441 99.1621C197.817 99.1621 198.152 99.0881 198.444 98.9399C198.736 98.7876 198.964 98.5824 199.129 98.3242C199.298 98.0661 199.383 97.7741 199.383 97.4482V95.3154C199.383 94.8923 199.254 94.5706 198.996 94.3506C198.742 94.1263 198.359 94.0142 197.847 94.0142C197.436 94.0142 197.1 94.0882 196.838 94.2363C196.575 94.3802 196.4 94.5854 196.311 94.8521L196.304 94.8711H195.2L195.206 94.833C195.266 94.4733 195.414 94.1602 195.651 93.8936C195.892 93.6227 196.203 93.4132 196.584 93.2651C196.965 93.1128 197.398 93.0366 197.885 93.0366C198.444 93.0366 198.915 93.1276 199.301 93.3096C199.69 93.4915 199.984 93.7539 200.183 94.0967C200.386 94.4352 200.488 94.8415 200.488 95.3154V100H199.383V98.9907H199.282C199.138 99.2319 198.962 99.4372 198.755 99.6064C198.552 99.7757 198.321 99.9048 198.063 99.9937C197.805 100.078 197.521 100.121 197.212 100.121ZM202.106 100V93.1572H203.211V94.1729H203.312C203.443 93.8132 203.666 93.5339 203.979 93.335C204.292 93.1361 204.679 93.0366 205.14 93.0366C205.246 93.0366 205.35 93.043 205.451 93.0557C205.557 93.0641 205.638 93.0726 205.693 93.0811V94.1538C205.578 94.1326 205.466 94.1178 205.356 94.1094C205.25 94.0967 205.136 94.0903 205.013 94.0903C204.662 94.0903 204.351 94.1602 204.08 94.2998C203.809 94.4395 203.596 94.6341 203.439 94.8838C203.287 95.1335 203.211 95.4255 203.211 95.7598V100H202.106ZM209.266 100.121C208.627 100.121 208.073 99.9746 207.603 99.6826C207.133 99.3906 206.769 98.978 206.511 98.4448C206.253 97.9116 206.124 97.2832 206.124 96.5596V96.5469C206.124 95.8359 206.251 95.2181 206.505 94.6934C206.763 94.1686 207.127 93.7624 207.597 93.4746C208.066 93.1826 208.621 93.0366 209.26 93.0366C209.814 93.0366 210.292 93.134 210.694 93.3286C211.096 93.5233 211.418 93.7856 211.659 94.1157C211.9 94.4416 212.055 94.8076 212.123 95.2139L212.129 95.252H211.031L211.025 95.2329C210.94 94.8944 210.747 94.6066 210.447 94.3696C210.146 94.1326 209.751 94.0142 209.26 94.0142C208.849 94.0142 208.494 94.1178 208.193 94.3252C207.893 94.5326 207.66 94.8267 207.495 95.2075C207.334 95.5841 207.254 96.0306 207.254 96.5469V96.5596C207.254 97.0843 207.337 97.5413 207.502 97.9307C207.667 98.3158 207.899 98.6141 208.2 98.8257C208.5 99.0373 208.854 99.1431 209.26 99.1431C209.721 99.1431 210.098 99.0436 210.39 98.8447C210.682 98.6458 210.891 98.356 211.018 97.9751L211.031 97.937L212.123 97.9307L212.11 98.0005C212.017 98.411 211.852 98.777 211.615 99.0986C211.378 99.416 211.065 99.6657 210.675 99.8477C210.286 100.03 209.816 100.121 209.266 100.121ZM215.633 100.121C215.117 100.121 214.683 100.023 214.332 99.8286C213.98 99.6297 213.716 99.342 213.538 98.9653C213.365 98.5845 213.278 98.1253 213.278 97.5879V93.1572H214.382V97.3213C214.382 97.9349 214.501 98.3919 214.738 98.6924C214.979 98.9928 215.373 99.1431 215.918 99.1431C216.219 99.1431 216.483 99.0986 216.712 99.0098C216.945 98.9209 217.139 98.7939 217.296 98.6289C217.452 98.4596 217.569 98.2565 217.645 98.0195C217.725 97.7783 217.766 97.5075 217.766 97.207V93.1572H218.87V100H217.766V98.978H217.664C217.554 99.2192 217.404 99.4266 217.213 99.6001C217.023 99.7694 216.794 99.8984 216.528 99.9873C216.265 100.076 215.967 100.121 215.633 100.121ZM222.882 100.121C222.374 100.121 221.925 100.044 221.536 99.8921C221.147 99.7355 220.834 99.5176 220.597 99.2383C220.364 98.959 220.226 98.631 220.184 98.2544H221.314C221.407 98.5379 221.589 98.7664 221.86 98.9399C222.131 99.1134 222.484 99.2002 222.92 99.2002C223.229 99.2002 223.5 99.1558 223.732 99.0669C223.969 98.9738 224.155 98.849 224.291 98.6924C224.426 98.5316 224.494 98.3475 224.494 98.1401V98.1274C224.494 97.8947 224.401 97.6979 224.215 97.5371C224.029 97.3721 223.724 97.2388 223.301 97.1372L222.241 96.8833C221.813 96.7817 221.462 96.6506 221.187 96.4897C220.912 96.3247 220.709 96.1237 220.578 95.8867C220.446 95.6455 220.381 95.362 220.381 95.0361V95.0298C220.381 94.6489 220.491 94.3083 220.711 94.0078C220.935 93.7074 221.24 93.4704 221.625 93.2969C222.01 93.1234 222.444 93.0366 222.926 93.0366C223.404 93.0366 223.828 93.1128 224.196 93.2651C224.568 93.4132 224.866 93.6248 225.091 93.8999C225.319 94.175 225.459 94.4987 225.51 94.8711H224.424C224.352 94.6003 224.187 94.3802 223.929 94.2109C223.671 94.0417 223.335 93.957 222.92 93.957C222.649 93.957 222.408 94.0015 222.196 94.0903C221.985 94.175 221.817 94.2935 221.695 94.4458C221.572 94.5981 221.511 94.7759 221.511 94.979V94.9917C221.511 95.144 221.551 95.2795 221.631 95.3979C221.712 95.5164 221.836 95.6201 222.006 95.709C222.175 95.7979 222.393 95.8761 222.66 95.9438L223.713 96.1978C224.357 96.3543 224.835 96.5786 225.148 96.8706C225.465 97.1626 225.624 97.554 225.624 98.0449V98.0576C225.624 98.4639 225.503 98.8236 225.262 99.1367C225.021 99.4456 224.693 99.6868 224.278 99.8604C223.868 100.034 223.402 100.121 222.882 100.121ZM233.533 96.3057V96.3184C233.533 96.5596 233.476 96.7775 233.362 96.9722C233.247 97.1668 233.091 97.3234 232.892 97.4419C232.697 97.5562 232.479 97.6133 232.238 97.6133H232.225C231.984 97.6133 231.766 97.5562 231.571 97.4419C231.377 97.3234 231.22 97.1668 231.102 96.9722C230.988 96.7775 230.93 96.5596 230.93 96.3184V96.3057C230.93 96.0645 230.988 95.8465 231.102 95.6519C231.22 95.453 231.377 95.2964 231.571 95.1821C231.766 95.0679 231.984 95.0107 232.225 95.0107H232.238C232.479 95.0107 232.697 95.0679 232.892 95.1821C233.091 95.2964 233.247 95.453 233.362 95.6519C233.476 95.8465 233.533 96.0645 233.533 96.3057ZM241.22 100L238.725 90.8403H239.918L241.74 98.2861H241.816L243.867 90.8403H245.022L247.072 98.2861H247.148L248.97 90.8403H250.164L247.669 100H246.59L244.482 92.77H244.406L242.299 100H241.22ZM252.607 100.121C252.176 100.121 251.786 100.038 251.439 99.873C251.097 99.708 250.824 99.4731 250.62 99.1685C250.422 98.8638 250.322 98.5041 250.322 98.0894V98.0767C250.322 97.6704 250.419 97.3234 250.614 97.0356C250.809 96.7437 251.092 96.5151 251.465 96.3501C251.837 96.1851 252.288 96.0877 252.817 96.0581L255.33 95.9058V96.7881L252.95 96.9404C252.43 96.9701 252.049 97.078 251.808 97.2642C251.571 97.4504 251.452 97.7127 251.452 98.0513V98.064C251.452 98.411 251.583 98.6818 251.846 98.8765C252.108 99.0669 252.438 99.1621 252.836 99.1621C253.212 99.1621 253.547 99.0881 253.839 98.9399C254.131 98.7876 254.359 98.5824 254.524 98.3242C254.694 98.0661 254.778 97.7741 254.778 97.4482V95.3154C254.778 94.8923 254.649 94.5706 254.391 94.3506C254.137 94.1263 253.754 94.0142 253.242 94.0142C252.832 94.0142 252.495 94.0882 252.233 94.2363C251.97 94.3802 251.795 94.5854 251.706 94.8521L251.7 94.8711H250.595L250.601 94.833C250.661 94.4733 250.809 94.1602 251.046 93.8936C251.287 93.6227 251.598 93.4132 251.979 93.2651C252.36 93.1128 252.794 93.0366 253.28 93.0366C253.839 93.0366 254.311 93.1276 254.696 93.3096C255.085 93.4915 255.379 93.7539 255.578 94.0967C255.781 94.4352 255.883 94.8415 255.883 95.3154V100H254.778V98.9907H254.677C254.533 99.2319 254.357 99.4372 254.15 99.6064C253.947 99.7757 253.716 99.9048 253.458 99.9937C253.2 100.078 252.916 100.121 252.607 100.121ZM257.565 100V90.4404H258.669V100H257.565ZM260.453 100V90.4404H261.557V100H260.453ZM264.763 100L262.091 96.6484L262.903 95.9438L266.153 100H264.763ZM261.418 97.5371L261.367 96.147H261.659L264.617 93.1572H265.956L262.706 96.293L262.44 96.5532L261.418 97.5371ZM269.524 100.121C268.872 100.121 268.311 99.9767 267.841 99.689C267.376 99.4012 267.016 98.995 266.762 98.4702C266.513 97.9412 266.388 97.3192 266.388 96.604V96.5977C266.388 95.891 266.513 95.271 266.762 94.7378C267.016 94.2046 267.374 93.7878 267.835 93.4873C268.296 93.1868 268.836 93.0366 269.454 93.0366C270.076 93.0366 270.609 93.1805 271.053 93.4683C271.502 93.756 271.845 94.158 272.082 94.6743C272.323 95.1864 272.443 95.783 272.443 96.4644V96.896H266.959V96.0137H271.879L271.333 96.8198V96.3818C271.333 95.8444 271.252 95.4022 271.091 95.0552C270.931 94.7082 270.708 94.45 270.425 94.2808C270.141 94.1073 269.816 94.0205 269.447 94.0205C269.079 94.0205 268.749 94.1115 268.457 94.2935C268.169 94.4712 267.941 94.7357 267.772 95.0869C267.602 95.4382 267.518 95.8698 267.518 96.3818V96.8198C267.518 97.3065 267.6 97.7233 267.765 98.0703C267.93 98.4131 268.165 98.6776 268.47 98.8638C268.775 99.0457 269.134 99.1367 269.549 99.1367C269.858 99.1367 270.127 99.0944 270.355 99.0098C270.584 98.9251 270.772 98.8172 270.92 98.686C271.068 98.5549 271.172 98.4215 271.231 98.2861L271.256 98.229H272.361L272.348 98.2798C272.289 98.5125 272.183 98.7389 272.031 98.959C271.883 99.1748 271.69 99.3716 271.453 99.5493C271.216 99.7228 270.935 99.8625 270.609 99.9683C270.287 100.07 269.926 100.121 269.524 100.121ZM273.757 100V93.1572H274.862V94.1729H274.963C275.095 93.8132 275.317 93.5339 275.63 93.335C275.943 93.1361 276.33 93.0366 276.792 93.0366C276.897 93.0366 277.001 93.043 277.103 93.0557C277.208 93.0641 277.289 93.0726 277.344 93.0811V94.1538C277.229 94.1326 277.117 94.1178 277.007 94.1094C276.902 94.0967 276.787 94.0903 276.665 94.0903C276.313 94.0903 276.002 94.1602 275.731 94.2998C275.461 94.4395 275.247 94.6341 275.09 94.8838C274.938 95.1335 274.862 95.4255 274.862 95.7598V100H273.757ZM284.904 96.3057V96.3184C284.904 96.5596 284.846 96.7775 284.732 96.9722C284.618 97.1668 284.461 97.3234 284.262 97.4419C284.068 97.5562 283.85 97.6133 283.609 97.6133H283.596C283.355 97.6133 283.137 97.5562 282.942 97.4419C282.748 97.3234 282.591 97.1668 282.472 96.9722C282.358 96.7775 282.301 96.5596 282.301 96.3184V96.3057C282.301 96.0645 282.358 95.8465 282.472 95.6519C282.591 95.453 282.748 95.2964 282.942 95.1821C283.137 95.0679 283.355 95.0107 283.596 95.0107H283.609C283.85 95.0107 284.068 95.0679 284.262 95.1821C284.461 95.2964 284.618 95.453 284.732 95.6519C284.846 95.8465 284.904 96.0645 284.904 96.3057ZM290.692 100V90.8403H291.803L297.053 98.3687L296.291 97.9688H296.875V90.8403H298.005V100H296.894L291.645 92.4971L292.406 92.897H291.822V100H290.692ZM300.703 100.063C300.478 100.063 300.284 99.9831 300.119 99.8223C299.958 99.6572 299.877 99.4626 299.877 99.2383C299.877 99.0098 299.958 98.8151 300.119 98.6543C300.284 98.4935 300.478 98.4131 300.703 98.4131C300.931 98.4131 301.126 98.4935 301.287 98.6543C301.447 98.8151 301.528 99.0098 301.528 99.2383C301.528 99.4626 301.447 99.6572 301.287 99.8223C301.126 99.9831 300.931 100.063 300.703 100.063ZM303.4 100V90.8403H306.542C307.448 90.8403 308.222 91.0223 308.866 91.3862C309.513 91.7459 310.008 92.2664 310.351 92.9478C310.694 93.6291 310.865 94.45 310.865 95.4106V95.4233C310.865 96.384 310.694 97.207 310.351 97.8926C310.008 98.5739 309.515 99.0965 308.872 99.4604C308.229 99.8201 307.452 100 306.542 100H303.4ZM304.543 98.9717H306.466C307.148 98.9717 307.729 98.832 308.212 98.5527C308.694 98.2734 309.062 97.8693 309.316 97.3403C309.57 96.8114 309.697 96.1766 309.697 95.436V95.4233C309.697 94.6785 309.568 94.0417 309.31 93.5127C309.056 92.9795 308.688 92.5732 308.205 92.2939C307.723 92.0104 307.143 91.8687 306.466 91.8687H304.543V98.9717ZM318.901 96.3057V96.3184C318.901 96.5596 318.844 96.7775 318.73 96.9722C318.615 97.1668 318.459 97.3234 318.26 97.4419C318.065 97.5562 317.847 97.6133 317.606 97.6133H317.593C317.352 97.6133 317.134 97.5562 316.94 97.4419C316.745 97.3234 316.588 97.1668 316.47 96.9722C316.356 96.7775 316.299 96.5596 316.299 96.3184V96.3057C316.299 96.0645 316.356 95.8465 316.47 95.6519C316.588 95.453 316.745 95.2964 316.94 95.1821C317.134 95.0679 317.352 95.0107 317.593 95.0107H317.606C317.847 95.0107 318.065 95.0679 318.26 95.1821C318.459 95.2964 318.615 95.453 318.73 95.6519C318.844 95.8465 318.901 96.0645 318.901 96.3057ZM324.69 100V90.8403H325.833V98.9717H330.25V100H324.69ZM334.015 100.121C333.363 100.121 332.802 99.9767 332.332 99.689C331.867 99.4012 331.507 98.995 331.253 98.4702C331.004 97.9412 330.879 97.3192 330.879 96.604V96.5977C330.879 95.891 331.004 95.271 331.253 94.7378C331.507 94.2046 331.865 93.7878 332.326 93.4873C332.787 93.1868 333.327 93.0366 333.945 93.0366C334.567 93.0366 335.1 93.1805 335.544 93.4683C335.993 93.756 336.336 94.158 336.573 94.6743C336.814 95.1864 336.934 95.783 336.934 96.4644V96.896H331.45V96.0137H336.37L335.824 96.8198V96.3818C335.824 95.8444 335.743 95.4022 335.582 95.0552C335.422 94.7082 335.199 94.45 334.916 94.2808C334.632 94.1073 334.307 94.0205 333.938 94.0205C333.57 94.0205 333.24 94.1115 332.948 94.2935C332.66 94.4712 332.432 94.7357 332.263 95.0869C332.093 95.4382 332.009 95.8698 332.009 96.3818V96.8198C332.009 97.3065 332.091 97.7233 332.256 98.0703C332.421 98.4131 332.656 98.6776 332.961 98.8638C333.266 99.0457 333.625 99.1367 334.04 99.1367C334.349 99.1367 334.618 99.0944 334.846 99.0098C335.075 98.9251 335.263 98.8172 335.411 98.686C335.559 98.5549 335.663 98.4215 335.722 98.2861L335.747 98.229H336.852L336.839 98.2798C336.78 98.5125 336.674 98.7389 336.522 98.959C336.374 99.1748 336.181 99.3716 335.944 99.5493C335.707 99.7228 335.426 99.8625 335.1 99.9683C334.778 100.07 334.417 100.121 334.015 100.121ZM338.248 100V93.1572H339.353V94.1855H339.454C339.628 93.8216 339.878 93.5402 340.203 93.3413C340.529 93.1382 340.944 93.0366 341.448 93.0366C342.218 93.0366 342.808 93.2567 343.219 93.6968C343.633 94.1326 343.841 94.7568 343.841 95.5693V100H342.736V95.8359C342.736 95.2181 342.605 94.7611 342.343 94.4648C342.084 94.1644 341.682 94.0142 341.137 94.0142C340.773 94.0142 340.457 94.0924 340.191 94.249C339.924 94.4056 339.717 94.6278 339.569 94.9155C339.425 95.2033 339.353 95.5482 339.353 95.9502V100H338.248ZM347.319 100.121C346.887 100.121 346.498 100.038 346.151 99.873C345.808 99.708 345.535 99.4731 345.332 99.1685C345.133 98.8638 345.034 98.5041 345.034 98.0894V98.0767C345.034 97.6704 345.131 97.3234 345.326 97.0356C345.521 96.7437 345.804 96.5151 346.176 96.3501C346.549 96.1851 347 96.0877 347.529 96.0581L350.042 95.9058V96.7881L347.662 96.9404C347.141 96.9701 346.76 97.078 346.519 97.2642C346.282 97.4504 346.164 97.7127 346.164 98.0513V98.064C346.164 98.411 346.295 98.6818 346.557 98.8765C346.82 99.0669 347.15 99.1621 347.548 99.1621C347.924 99.1621 348.258 99.0881 348.55 98.9399C348.842 98.7876 349.071 98.5824 349.236 98.3242C349.405 98.0661 349.49 97.7741 349.49 97.4482V95.3154C349.49 94.8923 349.361 94.5706 349.103 94.3506C348.849 94.1263 348.466 94.0142 347.954 94.0142C347.543 94.0142 347.207 94.0882 346.945 94.2363C346.682 94.3802 346.507 94.5854 346.418 94.8521L346.411 94.8711H345.307L345.313 94.833C345.372 94.4733 345.521 94.1602 345.758 93.8936C345.999 93.6227 346.31 93.4132 346.691 93.2651C347.071 93.1128 347.505 93.0366 347.992 93.0366C348.55 93.0366 349.022 93.1276 349.407 93.3096C349.797 93.4915 350.091 93.7539 350.29 94.0967C350.493 94.4352 350.594 94.8415 350.594 95.3154V100H349.49V98.9907H349.388C349.244 99.2319 349.069 99.4372 348.862 99.6064C348.658 99.7757 348.428 99.9048 348.17 99.9937C347.911 100.078 347.628 100.121 347.319 100.121ZM137.466 118.216C136.797 118.216 136.213 118.108 135.714 117.892C135.219 117.672 134.825 117.372 134.533 116.991C134.245 116.606 134.078 116.166 134.032 115.67L134.025 115.601H135.168L135.174 115.67C135.204 115.975 135.32 116.24 135.523 116.464C135.731 116.684 136.006 116.855 136.349 116.978C136.696 117.101 137.089 117.162 137.529 117.162C137.944 117.162 138.312 117.097 138.634 116.965C138.96 116.83 139.216 116.644 139.402 116.407C139.588 116.17 139.681 115.897 139.681 115.588V115.582C139.681 115.201 139.542 114.881 139.262 114.623C138.983 114.361 138.528 114.16 137.897 114.02L136.882 113.798C135.964 113.595 135.295 113.282 134.876 112.858C134.461 112.431 134.254 111.885 134.254 111.221V111.214C134.258 110.707 134.396 110.258 134.667 109.869C134.942 109.479 135.32 109.175 135.803 108.955C136.289 108.735 136.848 108.625 137.479 108.625C138.088 108.625 138.627 108.735 139.097 108.955C139.567 109.17 139.939 109.462 140.214 109.831C140.494 110.199 140.648 110.611 140.678 111.068L140.684 111.157H139.542L139.529 111.075C139.486 110.804 139.376 110.565 139.199 110.357C139.021 110.146 138.784 109.979 138.488 109.856C138.192 109.733 137.845 109.674 137.447 109.678C137.066 109.678 136.723 109.737 136.418 109.856C136.114 109.974 135.87 110.146 135.688 110.37C135.511 110.59 135.422 110.861 135.422 111.183V111.189C135.422 111.553 135.557 111.86 135.828 112.109C136.099 112.359 136.545 112.552 137.167 112.687L138.183 112.916C138.822 113.055 139.336 113.237 139.726 113.461C140.115 113.686 140.398 113.961 140.576 114.287C140.758 114.608 140.849 114.989 140.849 115.429V115.436C140.849 116.007 140.709 116.5 140.43 116.915C140.151 117.329 139.757 117.651 139.25 117.879C138.742 118.104 138.147 118.216 137.466 118.216ZM142.214 120.285V111.157H143.318V112.249H143.42C143.559 111.995 143.735 111.779 143.947 111.602C144.158 111.42 144.399 111.28 144.67 111.183C144.941 111.085 145.235 111.037 145.553 111.037C146.132 111.037 146.636 111.185 147.063 111.481C147.495 111.773 147.829 112.183 148.066 112.712C148.303 113.241 148.422 113.861 148.422 114.572V114.585C148.422 115.3 148.303 115.922 148.066 116.451C147.829 116.98 147.495 117.391 147.063 117.683C146.636 117.975 146.132 118.121 145.553 118.121C145.239 118.121 144.943 118.072 144.664 117.975C144.389 117.873 144.143 117.733 143.928 117.556C143.716 117.378 143.547 117.166 143.42 116.921H143.318V120.285H142.214ZM145.299 117.143C145.718 117.143 146.075 117.042 146.371 116.838C146.668 116.631 146.894 116.337 147.051 115.956C147.211 115.571 147.292 115.114 147.292 114.585V114.572C147.292 114.039 147.211 113.582 147.051 113.201C146.894 112.82 146.668 112.528 146.371 112.325C146.075 112.118 145.718 112.014 145.299 112.014C144.884 112.014 144.526 112.118 144.226 112.325C143.926 112.533 143.695 112.827 143.534 113.208C143.373 113.588 143.293 114.043 143.293 114.572V114.585C143.293 115.11 143.373 115.565 143.534 115.95C143.695 116.331 143.926 116.625 144.226 116.832C144.526 117.039 144.884 117.143 145.299 117.143ZM152.541 118.121C151.89 118.121 151.329 117.977 150.859 117.689C150.394 117.401 150.034 116.995 149.78 116.47C149.53 115.941 149.406 115.319 149.406 114.604V114.598C149.406 113.891 149.53 113.271 149.78 112.738C150.034 112.205 150.392 111.788 150.853 111.487C151.314 111.187 151.854 111.037 152.471 111.037C153.094 111.037 153.627 111.181 154.071 111.468C154.52 111.756 154.862 112.158 155.099 112.674C155.341 113.186 155.461 113.783 155.461 114.464V114.896H149.977V114.014H154.896L154.35 114.82V114.382C154.35 113.844 154.27 113.402 154.109 113.055C153.948 112.708 153.726 112.45 153.443 112.281C153.159 112.107 152.833 112.021 152.465 112.021C152.097 112.021 151.767 112.111 151.475 112.293C151.187 112.471 150.959 112.736 150.789 113.087C150.62 113.438 150.535 113.87 150.535 114.382V114.82C150.535 115.306 150.618 115.723 150.783 116.07C150.948 116.413 151.183 116.678 151.488 116.864C151.792 117.046 152.152 117.137 152.567 117.137C152.876 117.137 153.144 117.094 153.373 117.01C153.601 116.925 153.79 116.817 153.938 116.686C154.086 116.555 154.19 116.422 154.249 116.286L154.274 116.229H155.379L155.366 116.28C155.307 116.513 155.201 116.739 155.049 116.959C154.901 117.175 154.708 117.372 154.471 117.549C154.234 117.723 153.953 117.862 153.627 117.968C153.305 118.07 152.943 118.121 152.541 118.121ZM159.574 118.121C158.935 118.121 158.381 117.975 157.911 117.683C157.442 117.391 157.078 116.978 156.82 116.445C156.561 115.912 156.432 115.283 156.432 114.56V114.547C156.432 113.836 156.559 113.218 156.813 112.693C157.071 112.169 157.435 111.762 157.905 111.475C158.375 111.183 158.929 111.037 159.568 111.037C160.122 111.037 160.601 111.134 161.003 111.329C161.405 111.523 161.726 111.786 161.967 112.116C162.209 112.442 162.363 112.808 162.431 113.214L162.437 113.252H161.339L161.333 113.233C161.248 112.894 161.056 112.607 160.755 112.37C160.455 112.133 160.059 112.014 159.568 112.014C159.158 112.014 158.802 112.118 158.502 112.325C158.201 112.533 157.968 112.827 157.803 113.208C157.643 113.584 157.562 114.031 157.562 114.547V114.56C157.562 115.084 157.645 115.541 157.81 115.931C157.975 116.316 158.208 116.614 158.508 116.826C158.808 117.037 159.162 117.143 159.568 117.143C160.029 117.143 160.406 117.044 160.698 116.845C160.99 116.646 161.199 116.356 161.326 115.975L161.339 115.937L162.431 115.931L162.418 116C162.325 116.411 162.16 116.777 161.923 117.099C161.686 117.416 161.373 117.666 160.984 117.848C160.594 118.03 160.125 118.121 159.574 118.121ZM163.675 118V111.157H164.779V118H163.675ZM164.233 109.837C164.026 109.837 163.846 109.763 163.694 109.615C163.546 109.462 163.472 109.283 163.472 109.075C163.472 108.864 163.546 108.684 163.694 108.536C163.846 108.388 164.026 108.313 164.233 108.313C164.445 108.313 164.625 108.388 164.773 108.536C164.921 108.684 164.995 108.864 164.995 109.075C164.995 109.283 164.921 109.462 164.773 109.615C164.625 109.763 164.445 109.837 164.233 109.837ZM168.34 118.121C167.909 118.121 167.519 118.038 167.172 117.873C166.83 117.708 166.557 117.473 166.354 117.168C166.155 116.864 166.055 116.504 166.055 116.089V116.077C166.055 115.67 166.153 115.323 166.347 115.036C166.542 114.744 166.825 114.515 167.198 114.35C167.57 114.185 168.021 114.088 168.55 114.058L171.063 113.906V114.788L168.683 114.94C168.163 114.97 167.782 115.078 167.541 115.264C167.304 115.45 167.185 115.713 167.185 116.051V116.064C167.185 116.411 167.316 116.682 167.579 116.876C167.841 117.067 168.171 117.162 168.569 117.162C168.945 117.162 169.28 117.088 169.572 116.94C169.864 116.788 170.092 116.582 170.257 116.324C170.427 116.066 170.511 115.774 170.511 115.448V113.315C170.511 112.892 170.382 112.571 170.124 112.351C169.87 112.126 169.487 112.014 168.975 112.014C168.565 112.014 168.228 112.088 167.966 112.236C167.703 112.38 167.528 112.585 167.439 112.852L167.433 112.871H166.328L166.334 112.833C166.394 112.473 166.542 112.16 166.779 111.894C167.02 111.623 167.331 111.413 167.712 111.265C168.093 111.113 168.527 111.037 169.013 111.037C169.572 111.037 170.044 111.128 170.429 111.31C170.818 111.492 171.112 111.754 171.311 112.097C171.514 112.435 171.616 112.841 171.616 113.315V118H170.511V116.991H170.41C170.266 117.232 170.09 117.437 169.883 117.606C169.68 117.776 169.449 117.905 169.191 117.994C168.933 118.078 168.649 118.121 168.34 118.121ZM173.298 118V108.44H174.402V118H173.298ZM181.899 118V109.869H178.947V108.84H185.993V109.869H183.041V118H181.899ZM187.281 118V108.44H188.386V112.186H188.487C188.661 111.822 188.911 111.54 189.236 111.341C189.562 111.138 189.977 111.037 190.481 111.037C190.993 111.037 191.426 111.136 191.782 111.335C192.137 111.53 192.408 111.815 192.594 112.192C192.781 112.569 192.874 113.028 192.874 113.569V118H191.769V113.836C191.769 113.218 191.638 112.761 191.376 112.465C191.117 112.164 190.715 112.014 190.17 112.014C189.806 112.014 189.49 112.092 189.224 112.249C188.957 112.406 188.75 112.628 188.602 112.916C188.458 113.203 188.386 113.548 188.386 113.95V118H187.281ZM196.352 118.121C195.92 118.121 195.531 118.038 195.184 117.873C194.841 117.708 194.568 117.473 194.365 117.168C194.166 116.864 194.067 116.504 194.067 116.089V116.077C194.067 115.67 194.164 115.323 194.359 115.036C194.554 114.744 194.837 114.515 195.209 114.35C195.582 114.185 196.033 114.088 196.562 114.058L199.075 113.906V114.788L196.695 114.94C196.174 114.97 195.793 115.078 195.552 115.264C195.315 115.45 195.197 115.713 195.197 116.051V116.064C195.197 116.411 195.328 116.682 195.59 116.876C195.853 117.067 196.183 117.162 196.581 117.162C196.957 117.162 197.292 117.088 197.583 116.94C197.875 116.788 198.104 116.582 198.269 116.324C198.438 116.066 198.523 115.774 198.523 115.448V113.315C198.523 112.892 198.394 112.571 198.136 112.351C197.882 112.126 197.499 112.014 196.987 112.014C196.576 112.014 196.24 112.088 195.978 112.236C195.715 112.38 195.54 112.585 195.451 112.852L195.444 112.871H194.34L194.346 112.833C194.405 112.473 194.554 112.16 194.791 111.894C195.032 111.623 195.343 111.413 195.724 111.265C196.104 111.113 196.538 111.037 197.025 111.037C197.583 111.037 198.055 111.128 198.44 111.31C198.83 111.492 199.124 111.754 199.323 112.097C199.526 112.435 199.627 112.841 199.627 113.315V118H198.523V116.991H198.421C198.278 117.232 198.102 117.437 197.895 117.606C197.691 117.776 197.461 117.905 197.203 117.994C196.944 118.078 196.661 118.121 196.352 118.121ZM201.246 118V111.157H202.35V112.186H202.452C202.626 111.822 202.875 111.54 203.201 111.341C203.527 111.138 203.942 111.037 204.445 111.037C205.215 111.037 205.806 111.257 206.216 111.697C206.631 112.133 206.838 112.757 206.838 113.569V118H205.734V113.836C205.734 113.218 205.603 112.761 205.34 112.465C205.082 112.164 204.68 112.014 204.134 112.014C203.77 112.014 203.455 112.092 203.188 112.249C202.922 112.406 202.714 112.628 202.566 112.916C202.422 113.203 202.35 113.548 202.35 113.95V118H201.246ZM208.501 118V108.44H209.606V118H208.501ZM212.811 118L210.139 114.648L210.951 113.944L214.201 118H212.811ZM209.466 115.537L209.415 114.147H209.707L212.665 111.157H214.005L210.755 114.293L210.488 114.553L209.466 115.537ZM217.191 118.121C216.683 118.121 216.235 118.044 215.845 117.892C215.456 117.736 215.143 117.518 214.906 117.238C214.673 116.959 214.536 116.631 214.493 116.254H215.623C215.716 116.538 215.898 116.766 216.169 116.94C216.44 117.113 216.793 117.2 217.229 117.2C217.538 117.2 217.809 117.156 218.042 117.067C218.279 116.974 218.465 116.849 218.6 116.692C218.736 116.532 218.803 116.347 218.803 116.14V116.127C218.803 115.895 218.71 115.698 218.524 115.537C218.338 115.372 218.033 115.239 217.61 115.137L216.55 114.883C216.123 114.782 215.771 114.651 215.496 114.49C215.221 114.325 215.018 114.124 214.887 113.887C214.756 113.646 214.69 113.362 214.69 113.036V113.03C214.69 112.649 214.8 112.308 215.02 112.008C215.245 111.707 215.549 111.47 215.934 111.297C216.319 111.123 216.753 111.037 217.236 111.037C217.714 111.037 218.137 111.113 218.505 111.265C218.877 111.413 219.176 111.625 219.4 111.9C219.629 112.175 219.768 112.499 219.819 112.871H218.734C218.662 112.6 218.497 112.38 218.238 112.211C217.98 112.042 217.644 111.957 217.229 111.957C216.958 111.957 216.717 112.001 216.506 112.09C216.294 112.175 216.127 112.293 216.004 112.446C215.881 112.598 215.82 112.776 215.82 112.979V112.992C215.82 113.144 215.86 113.279 215.941 113.398C216.021 113.516 216.146 113.62 216.315 113.709C216.484 113.798 216.702 113.876 216.969 113.944L218.023 114.198C218.666 114.354 219.144 114.579 219.457 114.871C219.775 115.163 219.933 115.554 219.933 116.045V116.058C219.933 116.464 219.813 116.824 219.571 117.137C219.33 117.446 219.002 117.687 218.588 117.86C218.177 118.034 217.712 118.121 217.191 118.121ZM226.935 118.051C226.232 118.051 225.722 117.909 225.405 117.625C225.092 117.342 224.935 116.874 224.935 116.223V112.071H223.856V111.157H224.935V109.386H226.078V111.157H227.576V112.071H226.078V115.943C226.078 116.345 226.154 116.635 226.306 116.813C226.458 116.986 226.712 117.073 227.068 117.073C227.165 117.073 227.248 117.071 227.315 117.067C227.387 117.063 227.474 117.056 227.576 117.048V117.987C227.47 118.004 227.364 118.019 227.258 118.032C227.153 118.044 227.045 118.051 226.935 118.051ZM231.549 118.121C230.902 118.121 230.341 117.979 229.867 117.695C229.397 117.408 229.033 116.999 228.775 116.47C228.521 115.941 228.394 115.313 228.394 114.585V114.572C228.394 113.84 228.521 113.21 228.775 112.681C229.033 112.152 229.397 111.745 229.867 111.462C230.341 111.178 230.902 111.037 231.549 111.037C232.201 111.037 232.762 111.178 233.231 111.462C233.701 111.745 234.063 112.152 234.317 112.681C234.575 113.21 234.704 113.84 234.704 114.572V114.585C234.704 115.313 234.575 115.941 234.317 116.47C234.063 116.999 233.701 117.408 233.231 117.695C232.762 117.979 232.201 118.121 231.549 118.121ZM231.549 117.143C231.981 117.143 232.347 117.042 232.647 116.838C232.948 116.635 233.176 116.343 233.333 115.962C233.494 115.582 233.574 115.122 233.574 114.585V114.572C233.574 114.031 233.494 113.569 233.333 113.188C233.176 112.808 232.948 112.518 232.647 112.319C232.347 112.116 231.981 112.014 231.549 112.014C231.118 112.014 230.752 112.116 230.451 112.319C230.151 112.518 229.92 112.808 229.759 113.188C229.603 113.569 229.524 114.031 229.524 114.572V114.585C229.524 115.122 229.603 115.582 229.759 115.962C229.92 116.343 230.151 116.635 230.451 116.838C230.752 117.042 231.118 117.143 231.549 117.143ZM242.416 118.216C241.748 118.216 241.164 118.108 240.664 117.892C240.169 117.672 239.776 117.372 239.484 116.991C239.196 116.606 239.029 116.166 238.982 115.67L238.976 115.601H240.118L240.125 115.67C240.154 115.975 240.271 116.24 240.474 116.464C240.681 116.684 240.956 116.855 241.299 116.978C241.646 117.101 242.04 117.162 242.48 117.162C242.894 117.162 243.263 117.097 243.584 116.965C243.91 116.83 244.166 116.644 244.352 116.407C244.538 116.17 244.632 115.897 244.632 115.588V115.582C244.632 115.201 244.492 114.881 244.213 114.623C243.933 114.361 243.478 114.16 242.848 114.02L241.832 113.798C240.914 113.595 240.245 113.282 239.826 112.858C239.412 112.431 239.204 111.885 239.204 111.221V111.214C239.209 110.707 239.346 110.258 239.617 109.869C239.892 109.479 240.271 109.175 240.753 108.955C241.24 108.735 241.798 108.625 242.429 108.625C243.038 108.625 243.578 108.735 244.048 108.955C244.517 109.17 244.89 109.462 245.165 109.831C245.444 110.199 245.599 110.611 245.628 111.068L245.634 111.157H244.492L244.479 111.075C244.437 110.804 244.327 110.565 244.149 110.357C243.971 110.146 243.734 109.979 243.438 109.856C243.142 109.733 242.795 109.674 242.397 109.678C242.016 109.678 241.674 109.737 241.369 109.856C241.064 109.974 240.821 110.146 240.639 110.37C240.461 110.59 240.372 110.861 240.372 111.183V111.189C240.372 111.553 240.508 111.86 240.779 112.109C241.049 112.359 241.496 112.552 242.118 112.687L243.133 112.916C243.772 113.055 244.287 113.237 244.676 113.461C245.065 113.686 245.349 113.961 245.527 114.287C245.709 114.608 245.8 114.989 245.8 115.429V115.436C245.8 116.007 245.66 116.5 245.381 116.915C245.101 117.329 244.708 117.651 244.2 117.879C243.692 118.104 243.098 118.216 242.416 118.216ZM249.976 118.121C249.329 118.121 248.768 117.979 248.294 117.695C247.824 117.408 247.46 116.999 247.202 116.47C246.948 115.941 246.821 115.313 246.821 114.585V114.572C246.821 113.84 246.948 113.21 247.202 112.681C247.46 112.152 247.824 111.745 248.294 111.462C248.768 111.178 249.329 111.037 249.976 111.037C250.628 111.037 251.189 111.178 251.658 111.462C252.128 111.745 252.49 112.152 252.744 112.681C253.002 113.21 253.131 113.84 253.131 114.572V114.585C253.131 115.313 253.002 115.941 252.744 116.47C252.49 116.999 252.128 117.408 251.658 117.695C251.189 117.979 250.628 118.121 249.976 118.121ZM249.976 117.143C250.408 117.143 250.774 117.042 251.074 116.838C251.375 116.635 251.603 116.343 251.76 115.962C251.921 115.582 252.001 115.122 252.001 114.585V114.572C252.001 114.031 251.921 113.569 251.76 113.188C251.603 112.808 251.375 112.518 251.074 112.319C250.774 112.116 250.408 112.014 249.976 112.014C249.545 112.014 249.178 112.116 248.878 112.319C248.578 112.518 248.347 112.808 248.186 113.188C248.03 113.569 247.951 114.031 247.951 114.572V114.585C247.951 115.122 248.03 115.582 248.186 115.962C248.347 116.343 248.578 116.635 248.878 116.838C249.178 117.042 249.545 117.143 249.976 117.143ZM254.508 118V108.44H255.613V118H254.508Z" fill="#3C3C43" fill-opacity="0.6"/>
</svg>
