<svg width="390" height="154" viewBox="0 0 390 154" fill="none" xmlns="http://www.w3.org/2000/svg">
<path fill-rule="evenodd" clip-rule="evenodd" d="M185.228 44.8367C189.082 44.8367 191.009 45.852 191.009 47.8826V50.9504C191.009 52.6327 189.274 53.4757 185.803 53.4757H171.808C171.2 53.4757 170.728 53.659 170.396 54.0218C170.065 54.3884 169.899 54.7879 169.899 55.2204C169.899 55.5136 169.976 55.7922 170.135 56.0524C170.293 56.3126 170.518 56.5032 170.816 56.6242L190.755 65.8349C190.965 65.9412 191.164 65.9925 191.356 65.9925C191.794 65.9925 192.155 65.8056 192.443 65.4317C192.73 65.0579 192.874 64.6657 192.874 64.2479C192.874 64.0023 192.811 63.7714 192.689 63.5441C192.568 63.3206 192.369 63.1446 192.089 63.0237L176.414 56.2576H185.464C191.496 56.2576 194.513 54.3847 194.513 50.6388V48.0878C194.513 44.0304 191.238 41.9998 184.679 41.9998H167.858C166.863 41.9998 166.365 42.4946 166.365 43.4843C166.365 44.3859 166.863 44.8367 167.858 44.8367H185.228ZM138.283 65.2923L151.339 45.8042L164.364 65.2667V65.241C164.519 65.5012 164.729 65.6918 164.991 65.8128C165.253 65.9337 165.521 65.996 165.802 65.996C166.236 65.996 166.642 65.8568 167.018 65.5782C167.393 65.3033 167.581 64.9368 167.581 64.486C167.581 64.2074 167.46 63.8959 167.217 63.5477H167.242L153.561 43.2788C153.262 42.8427 152.908 42.5238 152.499 42.3149C152.09 42.106 151.685 42.0033 151.283 42.0033C150.849 42.0033 150.432 42.1133 150.042 42.3295C149.651 42.5458 149.316 42.861 149.036 43.2788L135.38 63.5733L135.406 63.5477C135.284 63.7053 135.203 63.8592 135.17 64.0168C135.137 64.1744 135.118 64.3137 135.118 64.4346C135.118 64.9038 135.31 65.2813 135.693 65.5672C136.076 65.8531 136.489 65.996 136.924 65.996C137.219 65.996 137.48 65.9411 137.709 65.8384C137.933 65.7358 138.125 65.5525 138.283 65.2923ZM199.481 44.8402C198.607 44.8402 198.173 44.3454 198.173 43.3558C198.173 42.4542 198.607 42.0033 199.481 42.0033H222.555C223.391 42.0033 223.812 42.4542 223.812 43.3558C223.812 44.3454 223.391 44.8402 222.555 44.8402H199.481ZM212.772 64.5116C212.772 65.5012 212.186 65.996 211.018 65.996C209.85 65.996 209.238 65.5012 209.238 64.5116V49.4181C209.238 48.2562 209.824 47.6735 210.992 47.6735C212.16 47.6735 212.772 48.2562 212.772 49.4181V64.5116ZM254.882 64.4861C254.882 64.1379 254.709 63.8007 254.359 63.4708L254.348 63.4818L230.245 42.5606C229.914 42.2821 229.556 42.1428 229.173 42.1428C228.716 42.1428 228.325 42.3077 227.994 42.6376C227.662 42.9675 227.496 43.3486 227.496 43.7298C227.496 44.111 227.662 44.4409 227.994 44.7194L238.798 54.0622L227.968 63.4562C227.795 63.5955 227.673 63.7457 227.603 63.9107C227.533 64.0756 227.5 64.2332 227.5 64.3908C227.5 64.5997 227.548 64.7977 227.644 64.9883C227.74 65.1788 227.865 65.3474 228.023 65.4941C228.182 65.6407 228.362 65.7616 228.561 65.8569C228.764 65.9522 228.967 65.9999 229.177 65.9999C229.35 65.9999 229.527 65.9669 229.7 65.9082C229.873 65.8459 230.039 65.747 230.197 65.6077L241.134 56.1367L252.103 65.6333C252.243 65.7726 252.402 65.8679 252.575 65.9192C252.748 65.9705 252.925 65.9962 253.098 65.9962C253.327 65.9962 253.544 65.9559 253.754 65.8789C253.964 65.7983 254.152 65.692 254.318 65.5527C254.484 65.4134 254.617 65.2558 254.723 65.0726C254.83 64.8893 254.882 64.695 254.882 64.4861ZM245.865 51.4598C246.304 51.4598 246.713 51.2949 247.096 50.965H247.099L254.222 44.7341C254.432 44.5435 254.58 44.3456 254.668 44.1477C254.753 43.9461 254.797 43.7518 254.797 43.5612C254.797 43.1617 254.646 42.8025 254.351 42.48C254.056 42.1611 253.673 41.9998 253.253 41.9998C252.833 41.9998 252.406 42.1904 251.971 42.5716L244.822 48.8538C244.612 49.0444 244.465 49.2314 244.376 49.4146C244.288 49.5979 244.244 49.7848 244.244 49.9754C244.244 50.3749 244.402 50.7231 244.726 51.0163C245.051 51.3132 245.427 51.4598 245.865 51.4598Z" fill="#262626"/>
<path d="M65.2686 100V90.8403H68.4107C69.3163 90.8403 70.0907 91.0223 70.734 91.3862C71.3814 91.7459 71.8766 92.2664 72.2193 92.9478C72.5621 93.6291 72.7335 94.45 72.7335 95.4106V95.4233C72.7335 96.384 72.5621 97.207 72.2193 97.8926C71.8766 98.5739 71.3836 99.0965 70.7403 99.4604C70.0971 99.8201 69.3206 100 68.4107 100H65.2686ZM66.4112 98.9717H68.3346C69.0159 98.9717 69.5977 98.832 70.0802 98.5527C70.5626 98.2734 70.9308 97.8693 71.1847 97.3403C71.4386 96.8114 71.5655 96.1766 71.5655 95.436V95.4233C71.5655 94.6785 71.4365 94.0417 71.1783 93.5127C70.9244 92.9795 70.5562 92.5732 70.0738 92.2939C69.5914 92.0104 69.0116 91.8687 68.3346 91.8687H66.4112V98.9717ZM76.0532 100.121C75.6216 100.121 75.2323 100.038 74.8852 99.873C74.5425 99.708 74.2695 99.4731 74.0664 99.1685C73.8675 98.8638 73.7681 98.5041 73.7681 98.0894V98.0767C73.7681 97.6704 73.8654 97.3234 74.0601 97.0356C74.2547 96.7437 74.5382 96.5151 74.9106 96.3501C75.283 96.1851 75.7337 96.0877 76.2627 96.0581L78.7764 95.9058V96.7881L76.396 96.9404C75.8755 96.9701 75.4946 97.078 75.2534 97.2642C75.0164 97.4504 74.8979 97.7127 74.8979 98.0513V98.064C74.8979 98.411 75.0291 98.6818 75.2915 98.8765C75.5539 99.0669 75.8839 99.1621 76.2817 99.1621C76.6584 99.1621 76.9927 99.0881 77.2847 98.9399C77.5767 98.7876 77.8052 98.5824 77.9702 98.3242C78.1395 98.0661 78.2241 97.7741 78.2241 97.4482V95.3154C78.2241 94.8923 78.095 94.5706 77.8369 94.3506C77.583 94.1263 77.2 94.0142 76.688 94.0142C76.2775 94.0142 75.9411 94.0882 75.6787 94.2363C75.4163 94.3802 75.2407 94.5854 75.1518 94.8521L75.1455 94.8711H74.041L74.0474 94.833C74.1066 94.4733 74.2547 94.1602 74.4917 93.8936C74.7329 93.6227 75.0439 93.4132 75.4248 93.2651C75.8057 93.1128 76.2394 93.0366 76.7261 93.0366C77.2847 93.0366 77.7565 93.1276 78.1416 93.3096C78.5309 93.4915 78.825 93.7539 79.0239 94.0967C79.227 94.4352 79.3286 94.8415 79.3286 95.3154V100H78.2241V98.9907H78.1226C77.9787 99.2319 77.8031 99.4372 77.5957 99.6064C77.3926 99.7757 77.1619 99.9048 76.9038 99.9937C76.6457 100.078 76.3621 100.121 76.0532 100.121ZM82.6293 100L80.0966 93.1572H81.2645L83.1371 98.7939H83.2387L85.1112 93.1572H86.2792L83.7465 100H82.6293ZM87.3645 100V93.1572H88.469V100H87.3645ZM87.9231 91.8369C87.7158 91.8369 87.5359 91.7629 87.3836 91.6147C87.2355 91.4624 87.1614 91.2826 87.1614 91.0752C87.1614 90.8636 87.2355 90.6838 87.3836 90.5356C87.5359 90.3875 87.7158 90.3135 87.9231 90.3135C88.1347 90.3135 88.3146 90.3875 88.4627 90.5356C88.6108 90.6838 88.6849 90.8636 88.6849 91.0752C88.6849 91.2826 88.6108 91.4624 88.4627 91.6147C88.3146 91.7629 88.1347 91.8369 87.9231 91.8369ZM92.6774 100.121C92.1019 100.121 91.5983 99.9746 91.1667 99.6826C90.7351 99.3906 90.4007 98.9801 90.1638 98.4512C89.9268 97.918 89.8083 97.2959 89.8083 96.585V96.5723C89.8083 95.8571 89.9268 95.235 90.1638 94.7061C90.4007 94.1771 90.7329 93.7666 91.1603 93.4746C91.592 93.1826 92.0977 93.0366 92.6774 93.0366C92.9906 93.0366 93.2847 93.0874 93.5598 93.189C93.8391 93.2863 94.0866 93.4238 94.3024 93.6016C94.5183 93.7793 94.6875 93.9909 94.8102 94.2363H94.9118V90.4404H96.0163V100H94.9118V98.9082H94.8102C94.6706 99.1621 94.495 99.38 94.2834 99.562C94.0718 99.7397 93.8306 99.8773 93.5598 99.9746C93.2889 100.072 92.9948 100.121 92.6774 100.121ZM92.9313 99.1431C93.3461 99.1431 93.7036 99.0394 94.0041 98.832C94.3046 98.6247 94.5352 98.3306 94.696 97.9497C94.8568 97.5646 94.9372 97.1097 94.9372 96.585V96.5723C94.9372 96.0433 94.8568 95.5884 94.696 95.2075C94.5352 94.8267 94.3046 94.5326 94.0041 94.3252C93.7036 94.1178 93.3461 94.0142 92.9313 94.0142C92.5166 94.0142 92.159 94.1178 91.8586 94.3252C91.5624 94.5283 91.3338 94.8203 91.173 95.2012C91.0165 95.582 90.9382 96.0391 90.9382 96.5723V96.585C90.9382 97.1139 91.0165 97.571 91.173 97.9561C91.3338 98.3369 91.5624 98.631 91.8586 98.8384C92.159 99.0415 92.5166 99.1431 92.9313 99.1431ZM104.928 100.216C104.293 100.216 103.72 100.104 103.208 99.8794C102.7 99.6551 102.264 99.3335 101.9 98.9146C101.541 98.4956 101.264 97.992 101.069 97.4038C100.874 96.8156 100.777 96.1554 100.777 95.4233V95.4106C100.777 94.4458 100.948 93.6058 101.291 92.8906C101.634 92.1712 102.116 91.6147 102.738 91.2212C103.365 90.8234 104.095 90.6245 104.928 90.6245C105.605 90.6245 106.208 90.7451 106.737 90.9863C107.271 91.2233 107.708 91.5576 108.051 91.9893C108.398 92.4209 108.631 92.9266 108.75 93.5063L108.762 93.5698H107.607L107.588 93.5063C107.402 92.9139 107.082 92.4611 106.629 92.1479C106.177 91.8348 105.61 91.6782 104.928 91.6782C104.323 91.6782 103.796 91.8327 103.348 92.1416C102.903 92.4463 102.558 92.8779 102.313 93.4365C102.068 93.9951 101.945 94.6532 101.945 95.4106V95.4233C101.945 95.9989 102.013 96.5173 102.148 96.9785C102.288 97.4398 102.486 97.8333 102.745 98.1592C103.007 98.4808 103.322 98.7284 103.69 98.9019C104.059 99.0754 104.473 99.1621 104.935 99.1621C105.48 99.1621 105.959 99.0542 106.369 98.8384C106.784 98.6183 107.105 98.3136 107.334 97.9243C107.562 97.535 107.677 97.0822 107.677 96.5659V96.3438H105.106V95.3408H108.819V96.458C108.819 97.0208 108.726 97.5329 108.54 97.9941C108.358 98.4554 108.096 98.8532 107.753 99.1875C107.41 99.5176 107 99.7715 106.521 99.9492C106.043 100.127 105.512 100.216 104.928 100.216ZM113.117 100.121C112.469 100.121 111.908 99.9788 111.434 99.6953C110.965 99.4076 110.601 98.9992 110.343 98.4702C110.089 97.9412 109.962 97.3128 109.962 96.585V96.5723C109.962 95.8402 110.089 95.2096 110.343 94.6807C110.601 94.1517 110.965 93.7454 111.434 93.4619C111.908 93.1784 112.469 93.0366 113.117 93.0366C113.768 93.0366 114.329 93.1784 114.799 93.4619C115.268 93.7454 115.63 94.1517 115.884 94.6807C116.142 95.2096 116.271 95.8402 116.271 96.5723V96.585C116.271 97.3128 116.142 97.9412 115.884 98.4702C115.63 98.9992 115.268 99.4076 114.799 99.6953C114.329 99.9788 113.768 100.121 113.117 100.121ZM113.117 99.1431C113.548 99.1431 113.914 99.0415 114.215 98.8384C114.515 98.6353 114.744 98.3433 114.9 97.9624C115.061 97.5815 115.141 97.1224 115.141 96.585V96.5723C115.141 96.0306 115.061 95.5693 114.9 95.1885C114.744 94.8076 114.515 94.5177 114.215 94.3188C113.914 94.1157 113.548 94.0142 113.117 94.0142C112.685 94.0142 112.319 94.1157 112.018 94.3188C111.718 94.5177 111.487 94.8076 111.327 95.1885C111.17 95.5693 111.092 96.0306 111.092 96.5723V96.585C111.092 97.1224 111.17 97.5815 111.327 97.9624C111.487 98.3433 111.718 98.6353 112.018 98.8384C112.319 99.0415 112.685 99.1431 113.117 99.1431ZM120.404 102.412C119.853 102.412 119.373 102.334 118.963 102.177C118.552 102.025 118.224 101.807 117.979 101.523C117.738 101.244 117.587 100.918 117.528 100.546L117.541 100.54H118.683L118.69 100.546C118.749 100.804 118.927 101.016 119.223 101.181C119.519 101.35 119.913 101.435 120.404 101.435C121.017 101.435 121.495 101.295 121.838 101.016C122.185 100.741 122.359 100.351 122.359 99.8477V98.4639H122.257C122.113 98.7135 121.933 98.9272 121.718 99.105C121.502 99.2827 121.258 99.4181 120.988 99.5112C120.717 99.6001 120.425 99.6445 120.112 99.6445C119.523 99.6445 119.013 99.5049 118.582 99.2256C118.154 98.9421 117.824 98.5527 117.592 98.0576C117.359 97.5625 117.242 96.9954 117.242 96.3564V96.3438C117.242 95.7048 117.359 95.1377 117.592 94.6426C117.829 94.1432 118.163 93.7518 118.595 93.4683C119.026 93.1805 119.54 93.0366 120.137 93.0366C120.459 93.0366 120.755 93.0874 121.026 93.189C121.297 93.2905 121.536 93.4344 121.743 93.6206C121.955 93.8068 122.13 94.029 122.27 94.2871H122.346V93.1572H123.45V99.9048C123.45 100.413 123.326 100.855 123.076 101.231C122.831 101.608 122.479 101.898 122.022 102.101C121.565 102.308 121.026 102.412 120.404 102.412ZM120.353 98.667C120.776 98.667 121.138 98.5697 121.438 98.375C121.743 98.1761 121.976 97.9032 122.137 97.5562C122.302 97.2091 122.384 96.8092 122.384 96.3564V96.3438C122.384 95.891 122.302 95.4889 122.137 95.1377C121.976 94.7865 121.743 94.5114 121.438 94.3125C121.138 94.1136 120.776 94.0142 120.353 94.0142C119.93 94.0142 119.57 94.1136 119.274 94.3125C118.982 94.5114 118.757 94.7865 118.601 95.1377C118.449 95.4889 118.372 95.891 118.372 96.3438V96.3564C118.372 96.8092 118.449 97.2091 118.601 97.5562C118.757 97.9032 118.982 98.1761 119.274 98.375C119.57 98.5697 119.93 98.667 120.353 98.667ZM127.925 102.412C127.375 102.412 126.895 102.334 126.485 102.177C126.074 102.025 125.746 101.807 125.501 101.523C125.259 101.244 125.109 100.918 125.05 100.546L125.063 100.54H126.205L126.212 100.546C126.271 100.804 126.449 101.016 126.745 101.181C127.041 101.35 127.435 101.435 127.925 101.435C128.539 101.435 129.017 101.295 129.36 101.016C129.707 100.741 129.881 100.351 129.881 99.8477V98.4639H129.779C129.635 98.7135 129.455 98.9272 129.239 99.105C129.024 99.2827 128.78 99.4181 128.509 99.5112C128.239 99.6001 127.947 99.6445 127.633 99.6445C127.045 99.6445 126.535 99.5049 126.104 99.2256C125.676 98.9421 125.346 98.5527 125.113 98.0576C124.881 97.5625 124.764 96.9954 124.764 96.3564V96.3438C124.764 95.7048 124.881 95.1377 125.113 94.6426C125.35 94.1432 125.685 93.7518 126.116 93.4683C126.548 93.1805 127.062 93.0366 127.659 93.0366C127.98 93.0366 128.277 93.0874 128.548 93.189C128.818 93.2905 129.057 93.4344 129.265 93.6206C129.476 93.8068 129.652 94.029 129.792 94.2871H129.868V93.1572H130.972V99.9048C130.972 100.413 130.848 100.855 130.598 101.231C130.352 101.608 130.001 101.898 129.544 102.101C129.087 102.308 128.548 102.412 127.925 102.412ZM127.875 98.667C128.298 98.667 128.66 98.5697 128.96 98.375C129.265 98.1761 129.498 97.9032 129.658 97.5562C129.823 97.2091 129.906 96.8092 129.906 96.3564V96.3438C129.906 95.891 129.823 95.4889 129.658 95.1377C129.498 94.7865 129.265 94.5114 128.96 94.3125C128.66 94.1136 128.298 94.0142 127.875 94.0142C127.452 94.0142 127.092 94.1136 126.796 94.3125C126.504 94.5114 126.279 94.7865 126.123 95.1377C125.97 95.4889 125.894 95.891 125.894 96.3438V96.3564C125.894 96.8092 125.97 97.2091 126.123 97.5562C126.279 97.9032 126.504 98.1761 126.796 98.375C127.092 98.5697 127.452 98.667 127.875 98.667ZM132.654 100V93.1572H133.759V100H132.654ZM133.213 91.8369C133.006 91.8369 132.826 91.7629 132.673 91.6147C132.525 91.4624 132.451 91.2826 132.451 91.0752C132.451 90.8636 132.525 90.6838 132.673 90.5356C132.826 90.3875 133.006 90.3135 133.213 90.3135C133.425 90.3135 133.604 90.3875 133.753 90.5356C133.901 90.6838 133.975 90.8636 133.975 91.0752C133.975 91.2826 133.901 91.4624 133.753 91.6147C133.604 91.7629 133.425 91.8369 133.213 91.8369ZM135.441 100V93.1572H136.545V94.1855H136.647C136.82 93.8216 137.07 93.5402 137.396 93.3413C137.722 93.1382 138.137 93.0366 138.64 93.0366C139.41 93.0366 140.001 93.2567 140.411 93.6968C140.826 94.1326 141.033 94.7568 141.033 95.5693V100H139.929V95.8359C139.929 95.2181 139.798 94.7611 139.535 94.4648C139.277 94.1644 138.875 94.0142 138.329 94.0142C137.965 94.0142 137.65 94.0924 137.383 94.249C137.117 94.4056 136.909 94.6278 136.761 94.9155C136.617 95.2033 136.545 95.5482 136.545 95.9502V100H135.441ZM144.981 100.121C144.474 100.121 144.025 100.044 143.636 99.8921C143.246 99.7355 142.933 99.5176 142.696 99.2383C142.463 98.959 142.326 98.631 142.284 98.2544H143.413C143.507 98.5379 143.689 98.7664 143.959 98.9399C144.23 99.1134 144.584 99.2002 145.019 99.2002C145.328 99.2002 145.599 99.1558 145.832 99.0669C146.069 98.9738 146.255 98.849 146.391 98.6924C146.526 98.5316 146.594 98.3475 146.594 98.1401V98.1274C146.594 97.8947 146.501 97.6979 146.314 97.5371C146.128 97.3721 145.823 97.2388 145.4 97.1372L144.34 96.8833C143.913 96.7817 143.562 96.6506 143.287 96.4897C143.011 96.3247 142.808 96.1237 142.677 95.8867C142.546 95.6455 142.48 95.362 142.48 95.0361V95.0298C142.48 94.6489 142.59 94.3083 142.81 94.0078C143.035 93.7074 143.339 93.4704 143.725 93.2969C144.11 93.1234 144.543 93.0366 145.026 93.0366C145.504 93.0366 145.927 93.1128 146.295 93.2651C146.668 93.4132 146.966 93.6248 147.19 93.8999C147.419 94.175 147.558 94.4987 147.609 94.8711H146.524C146.452 94.6003 146.287 94.3802 146.029 94.2109C145.771 94.0417 145.434 93.957 145.019 93.957C144.749 93.957 144.507 94.0015 144.296 94.0903C144.084 94.175 143.917 94.2935 143.794 94.4458C143.672 94.5981 143.61 94.7759 143.61 94.979V94.9917C143.61 95.144 143.65 95.2795 143.731 95.3979C143.811 95.5164 143.936 95.6201 144.105 95.709C144.275 95.7979 144.493 95.8761 144.759 95.9438L145.813 96.1978C146.456 96.3543 146.934 96.5786 147.247 96.8706C147.565 97.1626 147.724 97.554 147.724 98.0449V98.0576C147.724 98.4639 147.603 98.8236 147.362 99.1367C147.12 99.4456 146.793 99.6868 146.378 99.8604C145.967 100.034 145.502 100.121 144.981 100.121ZM155.633 96.3057V96.3184C155.633 96.5596 155.575 96.7775 155.461 96.9722C155.347 97.1668 155.19 97.3234 154.991 97.4419C154.797 97.5562 154.579 97.6133 154.338 97.6133H154.325C154.084 97.6133 153.866 97.5562 153.671 97.4419C153.476 97.3234 153.32 97.1668 153.201 96.9722C153.087 96.7775 153.03 96.5596 153.03 96.3184V96.3057C153.03 96.0645 153.087 95.8465 153.201 95.6519C153.32 95.453 153.476 95.2964 153.671 95.1821C153.866 95.0679 154.084 95.0107 154.325 95.0107H154.338C154.579 95.0107 154.797 95.0679 154.991 95.1821C155.19 95.2964 155.347 95.453 155.461 95.6519C155.575 95.8465 155.633 96.0645 155.633 96.3057ZM161.993 96.731V95.7153H164.583C165.238 95.7153 165.746 95.5461 166.106 95.2075C166.466 94.8647 166.646 94.3929 166.646 93.792V93.7793C166.646 93.1742 166.466 92.7023 166.106 92.3638C165.746 92.0252 165.238 91.856 164.583 91.856H161.993V90.8403H164.875C165.45 90.8403 165.958 90.9631 166.398 91.2085C166.838 91.4539 167.183 91.7967 167.433 92.2368C167.687 92.6769 167.813 93.1868 167.813 93.7666V93.7793C167.813 94.359 167.687 94.8711 167.433 95.3154C167.183 95.7598 166.838 96.1068 166.398 96.3564C165.958 96.6061 165.45 96.731 164.875 96.731H161.993ZM161.421 100V90.8403H162.564V100H161.421ZM171.438 100.121C170.922 100.121 170.488 100.023 170.137 99.8286C169.785 99.6297 169.521 99.342 169.343 98.9653C169.17 98.5845 169.083 98.1253 169.083 97.5879V93.1572H170.187V97.3213C170.187 97.9349 170.306 98.3919 170.543 98.6924C170.784 98.9928 171.178 99.1431 171.724 99.1431C172.024 99.1431 172.288 99.0986 172.517 99.0098C172.75 98.9209 172.944 98.7939 173.101 98.6289C173.258 98.4596 173.374 98.2565 173.45 98.0195C173.53 97.7783 173.571 97.5075 173.571 97.207V93.1572H174.675V100H173.571V98.978H173.469C173.359 99.2192 173.209 99.4266 173.018 99.6001C172.828 99.7694 172.6 99.8984 172.333 99.9873C172.071 100.076 171.772 100.121 171.438 100.121ZM176.338 102.285V93.1572H177.443V94.249H177.544C177.684 93.9951 177.86 93.7793 178.071 93.6016C178.283 93.4196 178.524 93.2799 178.795 93.1826C179.066 93.0853 179.36 93.0366 179.677 93.0366C180.257 93.0366 180.76 93.1847 181.188 93.481C181.619 93.7729 181.954 94.1834 182.191 94.7124C182.428 95.2414 182.546 95.8613 182.546 96.5723V96.585C182.546 97.3001 182.428 97.9222 182.191 98.4512C181.954 98.9801 181.619 99.3906 181.188 99.6826C180.76 99.9746 180.257 100.121 179.677 100.121C179.364 100.121 179.068 100.072 178.788 99.9746C178.513 99.873 178.268 99.7334 178.052 99.5557C177.84 99.3779 177.671 99.1663 177.544 98.9209H177.443V102.285H176.338ZM179.423 99.1431C179.842 99.1431 180.2 99.0415 180.496 98.8384C180.792 98.631 181.019 98.3369 181.175 97.9561C181.336 97.571 181.416 97.1139 181.416 96.585V96.5723C181.416 96.0391 181.336 95.582 181.175 95.2012C181.019 94.8203 180.792 94.5283 180.496 94.3252C180.2 94.1178 179.842 94.0142 179.423 94.0142C179.008 94.0142 178.651 94.1178 178.35 94.3252C178.05 94.5326 177.819 94.8267 177.658 95.2075C177.498 95.5884 177.417 96.0433 177.417 96.5723V96.585C177.417 97.1097 177.498 97.5646 177.658 97.9497C177.819 98.3306 178.05 98.6247 178.35 98.832C178.651 99.0394 179.008 99.1431 179.423 99.1431ZM183.873 102.285V93.1572H184.977V94.249H185.079C185.218 93.9951 185.394 93.7793 185.606 93.6016C185.817 93.4196 186.058 93.2799 186.329 93.1826C186.6 93.0853 186.894 93.0366 187.212 93.0366C187.791 93.0366 188.295 93.1847 188.722 93.481C189.154 93.7729 189.488 94.1834 189.725 94.7124C189.962 95.2414 190.081 95.8613 190.081 96.5723V96.585C190.081 97.3001 189.962 97.9222 189.725 98.4512C189.488 98.9801 189.154 99.3906 188.722 99.6826C188.295 99.9746 187.791 100.121 187.212 100.121C186.898 100.121 186.602 100.072 186.323 99.9746C186.048 99.873 185.802 99.7334 185.587 99.5557C185.375 99.3779 185.206 99.1663 185.079 98.9209H184.977V102.285H183.873ZM186.958 99.1431C187.377 99.1431 187.734 99.0415 188.03 98.8384C188.327 98.631 188.553 98.3369 188.71 97.9561C188.87 97.571 188.951 97.1139 188.951 96.585V96.5723C188.951 96.0391 188.87 95.582 188.71 95.2012C188.553 94.8203 188.327 94.5283 188.03 94.3252C187.734 94.1178 187.377 94.0142 186.958 94.0142C186.543 94.0142 186.185 94.1178 185.885 94.3252C185.585 94.5326 185.354 94.8267 185.193 95.2075C185.032 95.5884 184.952 96.0433 184.952 96.5723V96.585C184.952 97.1097 185.032 97.5646 185.193 97.9497C185.354 98.3306 185.585 98.6247 185.885 98.832C186.185 99.0394 186.543 99.1431 186.958 99.1431ZM191.737 102.399C191.665 102.399 191.585 102.395 191.496 102.387C191.407 102.382 191.325 102.374 191.249 102.361V101.454C191.316 101.466 191.39 101.475 191.471 101.479C191.551 101.483 191.629 101.485 191.706 101.485C192.019 101.485 192.275 101.405 192.474 101.244C192.677 101.083 192.84 100.806 192.962 100.413L193.089 100.006L190.557 93.1572H191.737L193.845 99.4795L193.407 98.7876H193.927L193.489 99.4795L195.59 93.1572H196.752L194.08 100.419C193.893 100.931 193.697 101.331 193.489 101.619C193.282 101.906 193.039 102.107 192.759 102.222C192.484 102.34 192.144 102.399 191.737 102.399ZM204.407 96.3057V96.3184C204.407 96.5596 204.35 96.7775 204.236 96.9722C204.121 97.1668 203.965 97.3234 203.766 97.4419C203.571 97.5562 203.353 97.6133 203.112 97.6133H203.1C202.858 97.6133 202.64 97.5562 202.446 97.4419C202.251 97.3234 202.094 97.1668 201.976 96.9722C201.862 96.7775 201.805 96.5596 201.805 96.3184V96.3057C201.805 96.0645 201.862 95.8465 201.976 95.6519C202.094 95.453 202.251 95.2964 202.446 95.1821C202.64 95.0679 202.858 95.0107 203.1 95.0107H203.112C203.353 95.0107 203.571 95.0679 203.766 95.1821C203.965 95.2964 204.121 95.453 204.236 95.6519C204.35 95.8465 204.407 96.0645 204.407 96.3057ZM210.196 100V90.8403H211.523L214.658 98.4829H214.76L217.896 90.8403H219.222V100H218.156V93.0049H217.597L218.88 91.0942L215.192 100H214.227L210.545 91.0942L211.821 93.0049H211.262V100H210.196ZM222.898 100.121C222.466 100.121 222.077 100.038 221.73 99.873C221.387 99.708 221.114 99.4731 220.911 99.1685C220.712 98.8638 220.612 98.5041 220.612 98.0894V98.0767C220.612 97.6704 220.71 97.3234 220.904 97.0356C221.099 96.7437 221.383 96.5151 221.755 96.3501C222.127 96.1851 222.578 96.0877 223.107 96.0581L225.621 95.9058V96.7881L223.24 96.9404C222.72 96.9701 222.339 97.078 222.098 97.2642C221.861 97.4504 221.742 97.7127 221.742 98.0513V98.064C221.742 98.411 221.873 98.6818 222.136 98.8765C222.398 99.0669 222.728 99.1621 223.126 99.1621C223.503 99.1621 223.837 99.0881 224.129 98.9399C224.421 98.7876 224.65 98.5824 224.815 98.3242C224.984 98.0661 225.068 97.7741 225.068 97.4482V95.3154C225.068 94.8923 224.939 94.5706 224.681 94.3506C224.427 94.1263 224.044 94.0142 223.532 94.0142C223.122 94.0142 222.785 94.0882 222.523 94.2363C222.261 94.3802 222.085 94.5854 221.996 94.8521L221.99 94.8711H220.885L220.892 94.833C220.951 94.4733 221.099 94.1602 221.336 93.8936C221.577 93.6227 221.888 93.4132 222.269 93.2651C222.65 93.1128 223.084 93.0366 223.57 93.0366C224.129 93.0366 224.601 93.1276 224.986 93.3096C225.375 93.4915 225.669 93.7539 225.868 94.0967C226.071 94.4352 226.173 94.8415 226.173 95.3154V100H225.068V98.9907H224.967C224.823 99.2319 224.647 99.4372 224.44 99.6064C224.237 99.7757 224.006 99.9048 223.748 99.9937C223.49 100.078 223.206 100.121 222.898 100.121ZM227.792 100V93.1572H228.896V94.1729H228.998C229.129 93.8132 229.351 93.5339 229.664 93.335C229.977 93.1361 230.364 93.0366 230.826 93.0366C230.931 93.0366 231.035 93.043 231.137 93.0557C231.243 93.0641 231.323 93.0726 231.378 93.0811V94.1538C231.264 94.1326 231.152 94.1178 231.042 94.1094C230.936 94.0967 230.821 94.0903 230.699 94.0903C230.347 94.0903 230.036 94.1602 229.766 94.2998C229.495 94.4395 229.281 94.6341 229.125 94.8838C228.972 95.1335 228.896 95.4255 228.896 95.7598V100H227.792ZM234.952 100.121C234.313 100.121 233.758 99.9746 233.288 99.6826C232.819 99.3906 232.455 98.978 232.197 98.4448C231.939 97.9116 231.809 97.2832 231.809 96.5596V96.5469C231.809 95.8359 231.936 95.2181 232.19 94.6934C232.448 94.1686 232.812 93.7624 233.282 93.4746C233.752 93.1826 234.306 93.0366 234.945 93.0366C235.5 93.0366 235.978 93.134 236.38 93.3286C236.782 93.5233 237.103 93.7856 237.345 94.1157C237.586 94.4416 237.74 94.8076 237.808 95.2139L237.814 95.252H236.716L236.71 95.2329C236.625 94.8944 236.433 94.6066 236.132 94.3696C235.832 94.1326 235.436 94.0142 234.945 94.0142C234.535 94.0142 234.179 94.1178 233.879 94.3252C233.578 94.5326 233.346 94.8267 233.181 95.2075C233.02 95.5841 232.939 96.0306 232.939 96.5469V96.5596C232.939 97.0843 233.022 97.5413 233.187 97.9307C233.352 98.3158 233.585 98.6141 233.885 98.8257C234.186 99.0373 234.539 99.1431 234.945 99.1431C235.406 99.1431 235.783 99.0436 236.075 98.8447C236.367 98.6458 236.577 98.356 236.704 97.9751L236.716 97.937L237.808 97.9307L237.795 98.0005C237.702 98.411 237.537 98.777 237.3 99.0986C237.063 99.416 236.75 99.6657 236.361 99.8477C235.971 100.03 235.502 100.121 234.952 100.121ZM241.318 100.121C240.802 100.121 240.368 100.023 240.017 99.8286C239.666 99.6297 239.401 99.342 239.223 98.9653C239.05 98.5845 238.963 98.1253 238.963 97.5879V93.1572H240.068V97.3213C240.068 97.9349 240.186 98.3919 240.423 98.6924C240.664 98.9928 241.058 99.1431 241.604 99.1431C241.904 99.1431 242.169 99.0986 242.397 99.0098C242.63 98.9209 242.825 98.7939 242.981 98.6289C243.138 98.4596 243.254 98.2565 243.33 98.0195C243.411 97.7783 243.451 97.5075 243.451 97.207V93.1572H244.555V100H243.451V98.978H243.349C243.239 99.2192 243.089 99.4266 242.899 99.6001C242.708 99.7694 242.48 99.8984 242.213 99.9873C241.951 100.076 241.652 100.121 241.318 100.121ZM248.567 100.121C248.059 100.121 247.611 100.044 247.221 99.8921C246.832 99.7355 246.519 99.5176 246.282 99.2383C246.049 98.959 245.912 98.631 245.869 98.2544H246.999C247.092 98.5379 247.274 98.7664 247.545 98.9399C247.816 99.1134 248.169 99.2002 248.605 99.2002C248.914 99.2002 249.185 99.1558 249.418 99.0669C249.655 98.9738 249.841 98.849 249.976 98.6924C250.112 98.5316 250.179 98.3475 250.179 98.1401V98.1274C250.179 97.8947 250.086 97.6979 249.9 97.5371C249.714 97.3721 249.409 97.2388 248.986 97.1372L247.926 96.8833C247.499 96.7817 247.147 96.6506 246.872 96.4897C246.597 96.3247 246.394 96.1237 246.263 95.8867C246.132 95.6455 246.066 95.362 246.066 95.0361V95.0298C246.066 94.6489 246.176 94.3083 246.396 94.0078C246.62 93.7074 246.925 93.4704 247.31 93.2969C247.695 93.1234 248.129 93.0366 248.612 93.0366C249.09 93.0366 249.513 93.1128 249.881 93.2651C250.253 93.4132 250.552 93.6248 250.776 93.8999C251.005 94.175 251.144 94.4987 251.195 94.8711H250.11C250.038 94.6003 249.873 94.3802 249.614 94.2109C249.356 94.0417 249.02 93.957 248.605 93.957C248.334 93.957 248.093 94.0015 247.882 94.0903C247.67 94.175 247.503 94.2935 247.38 94.4458C247.257 94.5981 247.196 94.7759 247.196 94.979V94.9917C247.196 95.144 247.236 95.2795 247.317 95.3979C247.397 95.5164 247.522 95.6201 247.691 95.709C247.86 95.7979 248.078 95.8761 248.345 95.9438L249.399 96.1978C250.042 96.3543 250.52 96.5786 250.833 96.8706C251.151 97.1626 251.309 97.554 251.309 98.0449V98.0576C251.309 98.4639 251.189 98.8236 250.947 99.1367C250.706 99.4456 250.378 99.6868 249.964 99.8604C249.553 100.034 249.088 100.121 248.567 100.121ZM259.218 96.3057V96.3184C259.218 96.5596 259.161 96.7775 259.047 96.9722C258.933 97.1668 258.776 97.3234 258.577 97.4419C258.382 97.5562 258.165 97.6133 257.923 97.6133H257.911C257.669 97.6133 257.451 97.5562 257.257 97.4419C257.062 97.3234 256.906 97.1668 256.787 96.9722C256.673 96.7775 256.616 96.5596 256.616 96.3184V96.3057C256.616 96.0645 256.673 95.8465 256.787 95.6519C256.906 95.453 257.062 95.2964 257.257 95.1821C257.451 95.0679 257.669 95.0107 257.911 95.0107H257.923C258.165 95.0107 258.382 95.0679 258.577 95.1821C258.776 95.2964 258.933 95.453 259.047 95.6519C259.161 95.8465 259.218 96.0645 259.218 96.3057ZM265.007 100V90.8403H266.118L271.367 98.3687L270.606 97.9688H271.19V90.8403H272.32V100H271.209L265.959 92.4971L266.721 92.897H266.137V100H265.007ZM275.017 100.063C274.793 100.063 274.598 99.9831 274.433 99.8223C274.272 99.6572 274.192 99.4626 274.192 99.2383C274.192 99.0098 274.272 98.8151 274.433 98.6543C274.598 98.4935 274.793 98.4131 275.017 98.4131C275.246 98.4131 275.44 98.4935 275.601 98.6543C275.762 98.8151 275.842 99.0098 275.842 99.2383C275.842 99.4626 275.762 99.6572 275.601 99.8223C275.44 99.9831 275.246 100.063 275.017 100.063ZM277.715 100V90.8403H280.857C281.763 90.8403 282.537 91.0223 283.18 91.3862C283.828 91.7459 284.323 92.2664 284.666 92.9478C285.008 93.6291 285.18 94.45 285.18 95.4106V95.4233C285.18 96.384 285.008 97.207 284.666 97.8926C284.323 98.5739 283.83 99.0965 283.187 99.4604C282.543 99.8201 281.767 100 280.857 100H277.715ZM278.858 98.9717H280.781C281.462 98.9717 282.044 98.832 282.526 98.5527C283.009 98.2734 283.377 97.8693 283.631 97.3403C283.885 96.8114 284.012 96.1766 284.012 95.436V95.4233C284.012 94.6785 283.883 94.0417 283.625 93.5127C283.371 92.9795 283.003 92.5732 282.52 92.2939C282.038 92.0104 281.458 91.8687 280.781 91.8687H278.858V98.9717ZM293.216 96.3057V96.3184C293.216 96.5596 293.159 96.7775 293.044 96.9722C292.93 97.1668 292.773 97.3234 292.575 97.4419C292.38 97.5562 292.162 97.6133 291.921 97.6133H291.908C291.667 97.6133 291.449 97.5562 291.254 97.4419C291.06 97.3234 290.903 97.1668 290.785 96.9722C290.67 96.7775 290.613 96.5596 290.613 96.3184V96.3057C290.613 96.0645 290.67 95.8465 290.785 95.6519C290.903 95.453 291.06 95.2964 291.254 95.1821C291.449 95.0679 291.667 95.0107 291.908 95.0107H291.921C292.162 95.0107 292.38 95.0679 292.575 95.1821C292.773 95.2964 292.93 95.453 293.044 95.6519C293.159 95.8465 293.216 96.0645 293.216 96.3057ZM299.005 100V90.8403H300.147V98.9717H304.565V100H299.005ZM308.329 100.121C307.678 100.121 307.117 99.9767 306.647 99.689C306.182 99.4012 305.822 98.995 305.568 98.4702C305.318 97.9412 305.193 97.3192 305.193 96.604V96.5977C305.193 95.891 305.318 95.271 305.568 94.7378C305.822 94.2046 306.179 93.7878 306.641 93.4873C307.102 93.1868 307.642 93.0366 308.259 93.0366C308.881 93.0366 309.415 93.1805 309.859 93.4683C310.308 93.756 310.65 94.158 310.887 94.6743C311.129 95.1864 311.249 95.783 311.249 96.4644V96.896H305.765V96.0137H310.684L310.138 96.8198V96.3818C310.138 95.8444 310.058 95.4022 309.897 95.0552C309.736 94.7082 309.514 94.45 309.231 94.2808C308.947 94.1073 308.621 94.0205 308.253 94.0205C307.885 94.0205 307.555 94.1115 307.263 94.2935C306.975 94.4712 306.747 94.7357 306.577 95.0869C306.408 95.4382 306.323 95.8698 306.323 96.3818V96.8198C306.323 97.3065 306.406 97.7233 306.571 98.0703C306.736 98.4131 306.971 98.6776 307.275 98.8638C307.58 99.0457 307.94 99.1367 308.355 99.1367C308.664 99.1367 308.932 99.0944 309.161 99.0098C309.389 98.9251 309.578 98.8172 309.726 98.686C309.874 98.5549 309.977 98.4215 310.037 98.2861L310.062 98.229H311.167L311.154 98.2798C311.095 98.5125 310.989 98.7389 310.837 98.959C310.688 99.1748 310.496 99.3716 310.259 99.5493C310.022 99.7228 309.74 99.8625 309.415 99.9683C309.093 100.07 308.731 100.121 308.329 100.121ZM312.563 100V93.1572H313.667V94.1855H313.769C313.943 93.8216 314.192 93.5402 314.518 93.3413C314.844 93.1382 315.259 93.0366 315.762 93.0366C316.532 93.0366 317.123 93.2567 317.533 93.6968C317.948 94.1326 318.155 94.7568 318.155 95.5693V100H317.051V95.8359C317.051 95.2181 316.92 94.7611 316.657 94.4648C316.399 94.1644 315.997 94.0142 315.451 94.0142C315.087 94.0142 314.772 94.0924 314.505 94.249C314.239 94.4056 314.031 94.6278 313.883 94.9155C313.739 95.2033 313.667 95.5482 313.667 95.9502V100H312.563ZM321.634 100.121C321.202 100.121 320.813 100.038 320.466 99.873C320.123 99.708 319.85 99.4731 319.647 99.1685C319.448 98.8638 319.349 98.5041 319.349 98.0894V98.0767C319.349 97.6704 319.446 97.3234 319.641 97.0356C319.835 96.7437 320.119 96.5151 320.491 96.3501C320.863 96.1851 321.314 96.0877 321.843 96.0581L324.357 95.9058V96.7881L321.976 96.9404C321.456 96.9701 321.075 97.078 320.834 97.2642C320.597 97.4504 320.478 97.7127 320.478 98.0513V98.064C320.478 98.411 320.61 98.6818 320.872 98.8765C321.134 99.0669 321.464 99.1621 321.862 99.1621C322.239 99.1621 322.573 99.0881 322.865 98.9399C323.157 98.7876 323.386 98.5824 323.551 98.3242C323.72 98.0661 323.805 97.7741 323.805 97.4482V95.3154C323.805 94.8923 323.676 94.5706 323.417 94.3506C323.163 94.1263 322.78 94.0142 322.268 94.0142C321.858 94.0142 321.522 94.0882 321.259 94.2363C320.997 94.3802 320.821 94.5854 320.732 94.8521L320.726 94.8711H319.621L319.628 94.833C319.687 94.4733 319.835 94.1602 320.072 93.8936C320.313 93.6227 320.624 93.4132 321.005 93.2651C321.386 93.1128 321.82 93.0366 322.307 93.0366C322.865 93.0366 323.337 93.1276 323.722 93.3096C324.111 93.4915 324.405 93.7539 324.604 94.0967C324.808 94.4352 324.909 94.8415 324.909 95.3154V100H323.805V98.9907H323.703C323.559 99.2319 323.384 99.4372 323.176 99.6064C322.973 99.7757 322.742 99.9048 322.484 99.9937C322.226 100.078 321.943 100.121 321.634 100.121ZM137.466 118.216C136.797 118.216 136.213 118.108 135.714 117.892C135.219 117.672 134.825 117.372 134.533 116.991C134.245 116.606 134.078 116.166 134.032 115.67L134.025 115.601H135.168L135.174 115.67C135.204 115.975 135.32 116.24 135.523 116.464C135.731 116.684 136.006 116.855 136.349 116.978C136.696 117.101 137.089 117.162 137.529 117.162C137.944 117.162 138.312 117.097 138.634 116.965C138.96 116.83 139.216 116.644 139.402 116.407C139.588 116.17 139.681 115.897 139.681 115.588V115.582C139.681 115.201 139.542 114.881 139.262 114.623C138.983 114.361 138.528 114.16 137.897 114.02L136.882 113.798C135.964 113.595 135.295 113.282 134.876 112.858C134.461 112.431 134.254 111.885 134.254 111.221V111.214C134.258 110.707 134.396 110.258 134.667 109.869C134.942 109.479 135.32 109.175 135.803 108.955C136.289 108.735 136.848 108.625 137.479 108.625C138.088 108.625 138.627 108.735 139.097 108.955C139.567 109.17 139.939 109.462 140.214 109.831C140.494 110.199 140.648 110.611 140.678 111.068L140.684 111.157H139.542L139.529 111.075C139.486 110.804 139.376 110.565 139.199 110.357C139.021 110.146 138.784 109.979 138.488 109.856C138.192 109.733 137.845 109.674 137.447 109.678C137.066 109.678 136.723 109.737 136.418 109.856C136.114 109.974 135.87 110.146 135.688 110.37C135.511 110.59 135.422 110.861 135.422 111.183V111.189C135.422 111.553 135.557 111.86 135.828 112.109C136.099 112.359 136.545 112.552 137.167 112.687L138.183 112.916C138.822 113.055 139.336 113.237 139.726 113.461C140.115 113.686 140.398 113.961 140.576 114.287C140.758 114.608 140.849 114.989 140.849 115.429V115.436C140.849 116.007 140.709 116.5 140.43 116.915C140.151 117.329 139.757 117.651 139.25 117.879C138.742 118.104 138.147 118.216 137.466 118.216ZM142.214 120.285V111.157H143.318V112.249H143.42C143.559 111.995 143.735 111.779 143.947 111.602C144.158 111.42 144.399 111.28 144.67 111.183C144.941 111.085 145.235 111.037 145.553 111.037C146.132 111.037 146.636 111.185 147.063 111.481C147.495 111.773 147.829 112.183 148.066 112.712C148.303 113.241 148.422 113.861 148.422 114.572V114.585C148.422 115.3 148.303 115.922 148.066 116.451C147.829 116.98 147.495 117.391 147.063 117.683C146.636 117.975 146.132 118.121 145.553 118.121C145.239 118.121 144.943 118.072 144.664 117.975C144.389 117.873 144.143 117.733 143.928 117.556C143.716 117.378 143.547 117.166 143.42 116.921H143.318V120.285H142.214ZM145.299 117.143C145.718 117.143 146.075 117.042 146.371 116.838C146.668 116.631 146.894 116.337 147.051 115.956C147.211 115.571 147.292 115.114 147.292 114.585V114.572C147.292 114.039 147.211 113.582 147.051 113.201C146.894 112.82 146.668 112.528 146.371 112.325C146.075 112.118 145.718 112.014 145.299 112.014C144.884 112.014 144.526 112.118 144.226 112.325C143.926 112.533 143.695 112.827 143.534 113.208C143.373 113.588 143.293 114.043 143.293 114.572V114.585C143.293 115.11 143.373 115.565 143.534 115.95C143.695 116.331 143.926 116.625 144.226 116.832C144.526 117.039 144.884 117.143 145.299 117.143ZM152.541 118.121C151.89 118.121 151.329 117.977 150.859 117.689C150.394 117.401 150.034 116.995 149.78 116.47C149.53 115.941 149.406 115.319 149.406 114.604V114.598C149.406 113.891 149.53 113.271 149.78 112.738C150.034 112.205 150.392 111.788 150.853 111.487C151.314 111.187 151.854 111.037 152.471 111.037C153.094 111.037 153.627 111.181 154.071 111.468C154.52 111.756 154.862 112.158 155.099 112.674C155.341 113.186 155.461 113.783 155.461 114.464V114.896H149.977V114.014H154.896L154.35 114.82V114.382C154.35 113.844 154.27 113.402 154.109 113.055C153.948 112.708 153.726 112.45 153.443 112.281C153.159 112.107 152.833 112.021 152.465 112.021C152.097 112.021 151.767 112.111 151.475 112.293C151.187 112.471 150.959 112.736 150.789 113.087C150.62 113.438 150.535 113.87 150.535 114.382V114.82C150.535 115.306 150.618 115.723 150.783 116.07C150.948 116.413 151.183 116.678 151.488 116.864C151.792 117.046 152.152 117.137 152.567 117.137C152.876 117.137 153.144 117.094 153.373 117.01C153.601 116.925 153.79 116.817 153.938 116.686C154.086 116.555 154.19 116.422 154.249 116.286L154.274 116.229H155.379L155.366 116.28C155.307 116.513 155.201 116.739 155.049 116.959C154.901 117.175 154.708 117.372 154.471 117.549C154.234 117.723 153.953 117.862 153.627 117.968C153.305 118.07 152.943 118.121 152.541 118.121ZM159.574 118.121C158.935 118.121 158.381 117.975 157.911 117.683C157.442 117.391 157.078 116.978 156.82 116.445C156.561 115.912 156.432 115.283 156.432 114.56V114.547C156.432 113.836 156.559 113.218 156.813 112.693C157.071 112.169 157.435 111.762 157.905 111.475C158.375 111.183 158.929 111.037 159.568 111.037C160.122 111.037 160.601 111.134 161.003 111.329C161.405 111.523 161.726 111.786 161.967 112.116C162.209 112.442 162.363 112.808 162.431 113.214L162.437 113.252H161.339L161.333 113.233C161.248 112.894 161.056 112.607 160.755 112.37C160.455 112.133 160.059 112.014 159.568 112.014C159.158 112.014 158.802 112.118 158.502 112.325C158.201 112.533 157.968 112.827 157.803 113.208C157.643 113.584 157.562 114.031 157.562 114.547V114.56C157.562 115.084 157.645 115.541 157.81 115.931C157.975 116.316 158.208 116.614 158.508 116.826C158.808 117.037 159.162 117.143 159.568 117.143C160.029 117.143 160.406 117.044 160.698 116.845C160.99 116.646 161.199 116.356 161.326 115.975L161.339 115.937L162.431 115.931L162.418 116C162.325 116.411 162.16 116.777 161.923 117.099C161.686 117.416 161.373 117.666 160.984 117.848C160.594 118.03 160.125 118.121 159.574 118.121ZM163.675 118V111.157H164.779V118H163.675ZM164.233 109.837C164.026 109.837 163.846 109.763 163.694 109.615C163.546 109.462 163.472 109.283 163.472 109.075C163.472 108.864 163.546 108.684 163.694 108.536C163.846 108.388 164.026 108.313 164.233 108.313C164.445 108.313 164.625 108.388 164.773 108.536C164.921 108.684 164.995 108.864 164.995 109.075C164.995 109.283 164.921 109.462 164.773 109.615C164.625 109.763 164.445 109.837 164.233 109.837ZM168.34 118.121C167.909 118.121 167.519 118.038 167.172 117.873C166.83 117.708 166.557 117.473 166.354 117.168C166.155 116.864 166.055 116.504 166.055 116.089V116.077C166.055 115.67 166.153 115.323 166.347 115.036C166.542 114.744 166.825 114.515 167.198 114.35C167.57 114.185 168.021 114.088 168.55 114.058L171.063 113.906V114.788L168.683 114.94C168.163 114.97 167.782 115.078 167.541 115.264C167.304 115.45 167.185 115.713 167.185 116.051V116.064C167.185 116.411 167.316 116.682 167.579 116.876C167.841 117.067 168.171 117.162 168.569 117.162C168.945 117.162 169.28 117.088 169.572 116.94C169.864 116.788 170.092 116.582 170.257 116.324C170.427 116.066 170.511 115.774 170.511 115.448V113.315C170.511 112.892 170.382 112.571 170.124 112.351C169.87 112.126 169.487 112.014 168.975 112.014C168.565 112.014 168.228 112.088 167.966 112.236C167.703 112.38 167.528 112.585 167.439 112.852L167.433 112.871H166.328L166.334 112.833C166.394 112.473 166.542 112.16 166.779 111.894C167.02 111.623 167.331 111.413 167.712 111.265C168.093 111.113 168.527 111.037 169.013 111.037C169.572 111.037 170.044 111.128 170.429 111.31C170.818 111.492 171.112 111.754 171.311 112.097C171.514 112.435 171.616 112.841 171.616 113.315V118H170.511V116.991H170.41C170.266 117.232 170.09 117.437 169.883 117.606C169.68 117.776 169.449 117.905 169.191 117.994C168.933 118.078 168.649 118.121 168.34 118.121ZM173.298 118V108.44H174.402V118H173.298ZM181.899 118V109.869H178.947V108.84H185.993V109.869H183.041V118H181.899ZM187.281 118V108.44H188.386V112.186H188.487C188.661 111.822 188.911 111.54 189.236 111.341C189.562 111.138 189.977 111.037 190.481 111.037C190.993 111.037 191.426 111.136 191.782 111.335C192.137 111.53 192.408 111.815 192.594 112.192C192.781 112.569 192.874 113.028 192.874 113.569V118H191.769V113.836C191.769 113.218 191.638 112.761 191.376 112.465C191.117 112.164 190.715 112.014 190.17 112.014C189.806 112.014 189.49 112.092 189.224 112.249C188.957 112.406 188.75 112.628 188.602 112.916C188.458 113.203 188.386 113.548 188.386 113.95V118H187.281ZM196.352 118.121C195.92 118.121 195.531 118.038 195.184 117.873C194.841 117.708 194.568 117.473 194.365 117.168C194.166 116.864 194.067 116.504 194.067 116.089V116.077C194.067 115.67 194.164 115.323 194.359 115.036C194.554 114.744 194.837 114.515 195.209 114.35C195.582 114.185 196.033 114.088 196.562 114.058L199.075 113.906V114.788L196.695 114.94C196.174 114.97 195.793 115.078 195.552 115.264C195.315 115.45 195.197 115.713 195.197 116.051V116.064C195.197 116.411 195.328 116.682 195.59 116.876C195.853 117.067 196.183 117.162 196.581 117.162C196.957 117.162 197.292 117.088 197.583 116.94C197.875 116.788 198.104 116.582 198.269 116.324C198.438 116.066 198.523 115.774 198.523 115.448V113.315C198.523 112.892 198.394 112.571 198.136 112.351C197.882 112.126 197.499 112.014 196.987 112.014C196.576 112.014 196.24 112.088 195.978 112.236C195.715 112.38 195.54 112.585 195.451 112.852L195.444 112.871H194.34L194.346 112.833C194.405 112.473 194.554 112.16 194.791 111.894C195.032 111.623 195.343 111.413 195.724 111.265C196.104 111.113 196.538 111.037 197.025 111.037C197.583 111.037 198.055 111.128 198.44 111.31C198.83 111.492 199.124 111.754 199.323 112.097C199.526 112.435 199.627 112.841 199.627 113.315V118H198.523V116.991H198.421C198.278 117.232 198.102 117.437 197.895 117.606C197.691 117.776 197.461 117.905 197.203 117.994C196.944 118.078 196.661 118.121 196.352 118.121ZM201.246 118V111.157H202.35V112.186H202.452C202.626 111.822 202.875 111.54 203.201 111.341C203.527 111.138 203.942 111.037 204.445 111.037C205.215 111.037 205.806 111.257 206.216 111.697C206.631 112.133 206.838 112.757 206.838 113.569V118H205.734V113.836C205.734 113.218 205.603 112.761 205.34 112.465C205.082 112.164 204.68 112.014 204.134 112.014C203.77 112.014 203.455 112.092 203.188 112.249C202.922 112.406 202.714 112.628 202.566 112.916C202.422 113.203 202.35 113.548 202.35 113.95V118H201.246ZM208.501 118V108.44H209.606V118H208.501ZM212.811 118L210.139 114.648L210.951 113.944L214.201 118H212.811ZM209.466 115.537L209.415 114.147H209.707L212.665 111.157H214.005L210.755 114.293L210.488 114.553L209.466 115.537ZM217.191 118.121C216.683 118.121 216.235 118.044 215.845 117.892C215.456 117.736 215.143 117.518 214.906 117.238C214.673 116.959 214.536 116.631 214.493 116.254H215.623C215.716 116.538 215.898 116.766 216.169 116.94C216.44 117.113 216.793 117.2 217.229 117.2C217.538 117.2 217.809 117.156 218.042 117.067C218.279 116.974 218.465 116.849 218.6 116.692C218.736 116.532 218.803 116.347 218.803 116.14V116.127C218.803 115.895 218.71 115.698 218.524 115.537C218.338 115.372 218.033 115.239 217.61 115.137L216.55 114.883C216.123 114.782 215.771 114.651 215.496 114.49C215.221 114.325 215.018 114.124 214.887 113.887C214.756 113.646 214.69 113.362 214.69 113.036V113.03C214.69 112.649 214.8 112.308 215.02 112.008C215.245 111.707 215.549 111.47 215.934 111.297C216.319 111.123 216.753 111.037 217.236 111.037C217.714 111.037 218.137 111.113 218.505 111.265C218.877 111.413 219.176 111.625 219.4 111.9C219.629 112.175 219.768 112.499 219.819 112.871H218.734C218.662 112.6 218.497 112.38 218.238 112.211C217.98 112.042 217.644 111.957 217.229 111.957C216.958 111.957 216.717 112.001 216.506 112.09C216.294 112.175 216.127 112.293 216.004 112.446C215.881 112.598 215.82 112.776 215.82 112.979V112.992C215.82 113.144 215.86 113.279 215.941 113.398C216.021 113.516 216.146 113.62 216.315 113.709C216.484 113.798 216.702 113.876 216.969 113.944L218.023 114.198C218.666 114.354 219.144 114.579 219.457 114.871C219.775 115.163 219.933 115.554 219.933 116.045V116.058C219.933 116.464 219.813 116.824 219.571 117.137C219.33 117.446 219.002 117.687 218.588 117.86C218.177 118.034 217.712 118.121 217.191 118.121ZM226.935 118.051C226.232 118.051 225.722 117.909 225.405 117.625C225.092 117.342 224.935 116.874 224.935 116.223V112.071H223.856V111.157H224.935V109.386H226.078V111.157H227.576V112.071H226.078V115.943C226.078 116.345 226.154 116.635 226.306 116.813C226.458 116.986 226.712 117.073 227.068 117.073C227.165 117.073 227.248 117.071 227.315 117.067C227.387 117.063 227.474 117.056 227.576 117.048V117.987C227.47 118.004 227.364 118.019 227.258 118.032C227.153 118.044 227.045 118.051 226.935 118.051ZM231.549 118.121C230.902 118.121 230.341 117.979 229.867 117.695C229.397 117.408 229.033 116.999 228.775 116.47C228.521 115.941 228.394 115.313 228.394 114.585V114.572C228.394 113.84 228.521 113.21 228.775 112.681C229.033 112.152 229.397 111.745 229.867 111.462C230.341 111.178 230.902 111.037 231.549 111.037C232.201 111.037 232.762 111.178 233.231 111.462C233.701 111.745 234.063 112.152 234.317 112.681C234.575 113.21 234.704 113.84 234.704 114.572V114.585C234.704 115.313 234.575 115.941 234.317 116.47C234.063 116.999 233.701 117.408 233.231 117.695C232.762 117.979 232.201 118.121 231.549 118.121ZM231.549 117.143C231.981 117.143 232.347 117.042 232.647 116.838C232.948 116.635 233.176 116.343 233.333 115.962C233.494 115.582 233.574 115.122 233.574 114.585V114.572C233.574 114.031 233.494 113.569 233.333 113.188C233.176 112.808 232.948 112.518 232.647 112.319C232.347 112.116 231.981 112.014 231.549 112.014C231.118 112.014 230.752 112.116 230.451 112.319C230.151 112.518 229.92 112.808 229.759 113.188C229.603 113.569 229.524 114.031 229.524 114.572V114.585C229.524 115.122 229.603 115.582 229.759 115.962C229.92 116.343 230.151 116.635 230.451 116.838C230.752 117.042 231.118 117.143 231.549 117.143ZM242.416 118.216C241.748 118.216 241.164 118.108 240.664 117.892C240.169 117.672 239.776 117.372 239.484 116.991C239.196 116.606 239.029 116.166 238.982 115.67L238.976 115.601H240.118L240.125 115.67C240.154 115.975 240.271 116.24 240.474 116.464C240.681 116.684 240.956 116.855 241.299 116.978C241.646 117.101 242.04 117.162 242.48 117.162C242.894 117.162 243.263 117.097 243.584 116.965C243.91 116.83 244.166 116.644 244.352 116.407C244.538 116.17 244.632 115.897 244.632 115.588V115.582C244.632 115.201 244.492 114.881 244.213 114.623C243.933 114.361 243.478 114.16 242.848 114.02L241.832 113.798C240.914 113.595 240.245 113.282 239.826 112.858C239.412 112.431 239.204 111.885 239.204 111.221V111.214C239.209 110.707 239.346 110.258 239.617 109.869C239.892 109.479 240.271 109.175 240.753 108.955C241.24 108.735 241.798 108.625 242.429 108.625C243.038 108.625 243.578 108.735 244.048 108.955C244.517 109.17 244.89 109.462 245.165 109.831C245.444 110.199 245.599 110.611 245.628 111.068L245.634 111.157H244.492L244.479 111.075C244.437 110.804 244.327 110.565 244.149 110.357C243.971 110.146 243.734 109.979 243.438 109.856C243.142 109.733 242.795 109.674 242.397 109.678C242.016 109.678 241.674 109.737 241.369 109.856C241.064 109.974 240.821 110.146 240.639 110.37C240.461 110.59 240.372 110.861 240.372 111.183V111.189C240.372 111.553 240.508 111.86 240.779 112.109C241.049 112.359 241.496 112.552 242.118 112.687L243.133 112.916C243.772 113.055 244.287 113.237 244.676 113.461C245.065 113.686 245.349 113.961 245.527 114.287C245.709 114.608 245.8 114.989 245.8 115.429V115.436C245.8 116.007 245.66 116.5 245.381 116.915C245.101 117.329 244.708 117.651 244.2 117.879C243.692 118.104 243.098 118.216 242.416 118.216ZM249.976 118.121C249.329 118.121 248.768 117.979 248.294 117.695C247.824 117.408 247.46 116.999 247.202 116.47C246.948 115.941 246.821 115.313 246.821 114.585V114.572C246.821 113.84 246.948 113.21 247.202 112.681C247.46 112.152 247.824 111.745 248.294 111.462C248.768 111.178 249.329 111.037 249.976 111.037C250.628 111.037 251.189 111.178 251.658 111.462C252.128 111.745 252.49 112.152 252.744 112.681C253.002 113.21 253.131 113.84 253.131 114.572V114.585C253.131 115.313 253.002 115.941 252.744 116.47C252.49 116.999 252.128 117.408 251.658 117.695C251.189 117.979 250.628 118.121 249.976 118.121ZM249.976 117.143C250.408 117.143 250.774 117.042 251.074 116.838C251.375 116.635 251.603 116.343 251.76 115.962C251.921 115.582 252.001 115.122 252.001 114.585V114.572C252.001 114.031 251.921 113.569 251.76 113.188C251.603 112.808 251.375 112.518 251.074 112.319C250.774 112.116 250.408 112.014 249.976 112.014C249.545 112.014 249.178 112.116 248.878 112.319C248.578 112.518 248.347 112.808 248.186 113.188C248.03 113.569 247.951 114.031 247.951 114.572V114.585C247.951 115.122 248.03 115.582 248.186 115.962C248.347 116.343 248.578 116.635 248.878 116.838C249.178 117.042 249.545 117.143 249.976 117.143ZM254.508 118V108.44H255.613V118H254.508Z" fill="#3C3C43" fill-opacity="0.6"/>
</svg>
