<?xml version="1.0" encoding="UTF-8"?>
<svg id="Layer_1" data-name="Layer 1" xmlns="http://www.w3.org/2000/svg" viewBox="0 0 325.02 65.46">
  <defs>
    <style>
      .cls-1 {
        fill: #606060;
        stroke-width: 0px;
      }
    </style>
  </defs>
  <path class="cls-1" d="m44.02,10.37L8.59,63.54c-.43.71-.95,1.21-1.56,1.49-.62.28-1.33.43-2.13.43-1.18,0-2.3-.39-3.34-1.17-1.04-.78-1.56-1.81-1.56-3.09,0-.33.05-.71.14-1.14.09-.43.31-.85.64-1.28l-.07.07L37.77,3.48c.76-1.14,1.67-2,2.73-2.59,1.06-.59,2.19-.89,3.37-.89,1.09,0,2.19.28,3.3.85,1.11.57,2.07,1.44,2.88,2.63l37.13,55.3h-.07c.66.95.99,1.8.99,2.56,0,1.23-.51,2.23-1.53,2.98-1.02.76-2.12,1.14-3.3,1.14-.76,0-1.49-.17-2.2-.5-.71-.33-1.28-.85-1.7-1.56v.07L44.02,10.37Z"/>
  <path class="cls-1" d="m151.68,16.04c0-5.54-5.23-8.31-15.69-8.31h-47.14c-2.7,0-4.05-1.23-4.05-3.69,0-2.7,1.35-4.05,4.05-4.05h45.65c17.8,0,26.69,5.54,26.69,16.61v6.96c0,10.22-8.19,15.33-24.56,15.33h-24.56l42.54,18.46c.76.33,1.3.81,1.63,1.42.33.62.5,1.25.5,1.92,0,1.14-.39,2.21-1.17,3.23-.78,1.02-1.76,1.53-2.95,1.53-.52,0-1.06-.14-1.63-.43l-54.11-25.13c-.81-.33-1.42-.85-1.85-1.56-.43-.71-.64-1.47-.64-2.27,0-1.18.45-2.27,1.35-3.27.9-.99,2.18-1.49,3.83-1.49h37.98c9.42,0,14.13-2.3,14.13-6.89v-8.38Z"/>
  <path class="cls-1" d="m174.67,7.74c-2.37,0-3.55-1.35-3.55-4.05,0-2.46,1.18-3.69,3.55-3.69h62.62c2.27,0,3.41,1.23,3.41,3.69,0,2.7-1.14,4.05-3.41,4.05h-62.62Zm36.07,53.67c0,2.7-1.59,4.05-4.76,4.05s-4.83-1.35-4.83-4.05V20.23c0-3.17,1.59-4.76,4.76-4.76s4.83,1.59,4.83,4.76v41.18Z"/>
  <path class="cls-1" d="m323.6,58.57c.95.9,1.42,1.82,1.42,2.77,0,.57-.14,1.1-.43,1.6s-.65.93-1.1,1.31c-.45.38-.96.67-1.53.89-.57.21-1.16.32-1.78.32-.47,0-.95-.07-1.42-.21-.47-.14-.9-.4-1.28-.78l-29.77-25.91-29.68,25.84c-.43.38-.88.65-1.35.82-.47.16-.95.25-1.42.25-.57,0-1.12-.13-1.67-.39-.54-.26-1.03-.59-1.46-.99-.43-.4-.77-.86-1.03-1.38-.26-.52-.39-1.06-.39-1.63,0-.43.09-.86.28-1.31.19-.45.52-.86.99-1.24l29.39-25.63-29.32-25.49c-.9-.76-1.35-1.66-1.35-2.7s.45-2.08,1.35-2.98c.9-.9,1.96-1.35,3.2-1.35,1.04,0,2.01.38,2.91,1.14l65.41,57.08Zm-19.71-34.12c-1.04.9-2.15,1.35-3.34,1.35s-2.21-.4-3.09-1.21c-.88-.8-1.31-1.75-1.31-2.84,0-.52.12-1.03.36-1.53.24-.5.64-1.01,1.21-1.53l19.4-17.14c1.18-1.04,2.34-1.56,3.48-1.56s2.18.44,2.98,1.31c.8.88,1.21,1.86,1.21,2.95,0,.52-.12,1.05-.35,1.6-.24.54-.64,1.08-1.21,1.6l-19.33,17Z"/>
</svg>